<svg xmlns="http://www.w3.org/2000/svg" viewBox="0 0 1672.89 387.56">
  <defs>
    <style>
      .cls-1 {
        isolation: isolate;
      }

      .cls-2 {
        mix-blend-mode: difference;
        opacity: 0.3;
      }

      .cls-3 {
        fill: #eff0ff;
        fill-opacity: 0.99;
      }
    </style>
  </defs>
  <g class="cls-1">
    <g id="Ebene_11" data-name="Ebene 11">
      <path id="path6093" class="cls-3" d="M811,153.5a58.06,58.06,0,0,0-36.18,12.65V121.9a11,11,0,0,0-11-11H752.72V258.12a11,11,0,0,0,11,11h11.09V210a36.23,36.23,0,0,1,72.42,1.82v46.29A11,11,0,0,0,857.67,269h11.57l.09-57.2a58.26,58.26,0,0,0-58.26-58.27m198.45.84V258a11,11,0,0,0,11,11v.09h11V154.37h-22.07M553.91,248.1a36.27,36.27,0,1,1,36.26-36.29,36.28,36.28,0,0,1-36.26,36.29m0-94.58a57.78,57.78,0,0,0-37,13.3V122h0a11,11,0,0,0-11-11v-.09H495.72v99.94c0,.37-.09.65-.09,1a58.28,58.28,0,1,0,58.29-58.29m937,0a58.29,58.29,0,0,0-58.28,58.27v46.6A11,11,0,0,0,1443.53,269h11.11V211.82a36.25,36.25,0,0,1,70-13.27h23a58.25,58.25,0,0,0-56.71-45m-327.57,58.29a58.27,58.27,0,1,0-116.54,0V258a11.06,11.06,0,0,0,11,11h10.88l.09-57.19a36.26,36.26,0,0,1,72.52,0V258a11.06,11.06,0,0,0,11.06,11h11l-.1-57.19m-131.73-83.2a11,11,0,1,1-11-11,11,11,0,0,1,11,11m201.82,119.48a36.27,36.27,0,1,1,36.25-36.28,36.28,36.28,0,0,1-36.25,36.28m58.26-36.28a58.25,58.25,0,1,0-21.88,45.53v7.24a36.25,36.25,0,0,1-70,13.31h-23a58.18,58.18,0,0,0,114.84-13.31V211.82m70.57-36.25a36.31,36.31,0,0,1,33.77,23.06H1328.4a36.2,36.2,0,0,1,33.76-23.06m54.33,44.28h3.35a55.76,55.76,0,0,0,.66-8,58.5,58.5,0,1,0-2.6,17h-23.73a36.23,36.23,0,0,1-67.35-9h89.69m-734.2-44.28a36.29,36.29,0,0,1,33.78,23.06H648.58a36.19,36.19,0,0,1,33.73-23.06m54.38,44.28H740a57.23,57.23,0,0,0,.65-8,58.23,58.23,0,1,0-2.53,17H714.33a36.21,36.21,0,0,1-67.32-9h89.71m205.61-66.31a58.25,58.25,0,0,0-58.27,58.27l-.1,46.34A11.07,11.07,0,0,0,894.37,269h11.69V211.83A36.22,36.22,0,0,1,976,198.56h23a58.13,58.13,0,0,0-56.64-45"/>
      <path id="path6109" class="cls-3" d="M233.22,226.81a41.53,41.53,0,0,0,8.71-2.47,79.9,79.9,0,0,0,23.46-15.54c7.17-6.83,11.73-14.58,11.58-20.74-.21-8.68-9.79-8.71-13.56-8.39a2.89,2.89,0,0,0-2.17,1.15c-4.36,6.33-28.9,42.08-29.92,43.52-1.21,1.69-.52,2.88,1.9,2.47m59-69.33c-10.25,3.4-21,10.51-22.67,11.6a0,0,0,0,0,0,0s-.07,0-.14.07l0,0c-.49.39-.73.95-.49,1.31s.85.4,1.43.11h0A74.1,74.1,0,0,1,289,161.8c7.18-2.09,15.15-2.64,21.45,1,16.74,9.65,8.17,38.51-5.13,57.68-7.64,11-18.73,22.89-31.16,30.94-9.59,6.2-18.85,10.46-29.68,10.5-22.31.07-19.9-24.81-19.9-24.81h0V237c.07-.73-.14-1.36-.52-1.38s-.7.51-.77,1.25V237h0c-.25,3.61-2.48,17.22,9.25,26.61,4.31,3.46,9.35,4.65,14.2,4.93a55.54,55.54,0,0,0,17-2c5.06-1.43,12.42-4.21,23-11.18a137.82,137.82,0,0,0,27-23.93c10.55-12.26,20.87-30.5,21.91-45.47,2.63-37.78-30.75-32.66-43.37-28.46M438.56,277.36l-.45,2.92-.39,1.28-1.15,2.91a19.09,19.09,0,0,1-17,10.37H170.27l-3.14-.25a19,19,0,0,1-15-13l-.42-1.33-.45-2.92v-3l.21-1.41.7-2.92.53-1.39,1.37-2.73L280.06,94l.89-1.13L282,91.68l1-.93,2.4-1.84,2.65-1.32,2.9-.9,2.92-.44h2.9l3,.44,1.34.42,2.76,1.15,2.57,1.56,2.19,1.86,1,1.08L434.92,264.65l1.65,2.59,1.1,2.73.45,1.45.45,2.92v3Zm4.67-6.88-.67-2.21-1.29-3.21-2.08-3.33L313.78,89.6l-1.32-1.47-1.57-1.43-1.26-1-3.22-2L303,82.28l-1.84-.59-3.84-.6-3.64,0-3.69.52-3.66,1.1-3.44,1.68-3.24,2.42-1.26,1.14L277,89.5l-1.06,1.35L150.75,261.59l-1,1.39L148,266.39l-.73,1.87-.9,3.72-.25,1.77,0,3.79.53,3.68.6,2A24.08,24.08,0,0,0,170,300H419.76l3.5-.24a24.06,24.06,0,0,0,19.38-16.5l.52-1.64.59-3.66,0-3.83"/>
    </g>
  </g>
</svg>
