<svg xmlns="http://www.w3.org/2000/svg" viewBox="0 0 512 512">
  <defs>
    <style>
      .cls-1 {
        fill: #1c1846;
      }

      .cls-2 {
        fill: #9980ff;
      }
    </style>
  </defs>
  <g id="Ebene_5" data-name="Ebene 5">
    <g>
      <g>
        <path class="cls-1" d="M69.87,404.14l69.85-24.74a63.36,63.36,0,0,1,21.14-3.63h166a24.54,24.54,0,0,0,24.47-24.47V213.1a24.54,24.54,0,0,0-24.47-24.47h-222A24.55,24.55,0,0,0,80.46,213.1V342.63a54.56,54.56,0,0,1-5.14,23.14L61.64,395.06A6.64,6.64,0,0,0,69.87,404.14Z"/>
        <rect class="cls-2" x="113.2" y="221.7" width="185.95" height="21.39" rx="10.28" transform="translate(412.35 464.79) rotate(-180)"/>
        <rect class="cls-2" x="113.2" y="269.55" width="160.41" height="21.39" rx="9.55" transform="translate(386.81 560.48) rotate(-180)"/>
        <rect class="cls-2" x="113.2" y="317.4" width="201.2" height="21.39" rx="10.69" transform="translate(427.6 656.18) rotate(180)"/>
      </g>
      <g>
        <path class="cls-1" d="M442.68,319.2,371,300.63a63.62,63.62,0,0,0-21.38-1.78l-165.4,14.44a24.54,24.54,0,0,1-26.51-22.24l-12-137.68a24.54,24.54,0,0,1,22.25-26.51L389,107.56a24.53,24.53,0,0,1,26.5,22.25l11.27,129a54.7,54.7,0,0,0,7.13,22.61l16.19,28A6.65,6.65,0,0,1,442.68,319.2Z"/>
        <rect class="cls-2" x="182.67" y="150.69" width="185.95" height="21.39" rx="10.28" transform="translate(-12.99 24.58) rotate(-4.99)"/>
        <rect class="cls-2" x="186.88" y="199.47" width="160.41" height="21.39" rx="9.55" transform="translate(-17.27 24.02) rotate(-4.99)"/>
        <rect class="cls-2" x="190.96" y="245.36" width="201.2" height="21.39" rx="10.69" transform="translate(-21.16 26.33) rotate(-4.99)"/>
      </g>
    </g>
  </g>
</svg>
