<svg xmlns="http://www.w3.org/2000/svg" viewBox="0 0 512 512">
  <defs>
    <style>
      .cls-1 {
        fill: #eff0ff;
      }

      .cls-2 {
        fill: #1c1846;
      }

      .cls-3 {
        fill: #9980ff;
      }
    </style>
  </defs>
  <g id="Ebene_5" data-name="Ebene 5">
    <g id="mail">
      <path class="cls-1" d="M395.11,115.85H116.89c-19.12,0-34.59,15.78-34.59,35.05l-.1,108.67-.09,101.54c0,.34,0,.69,0,1s0,.37,0,.56,0,.31,0,.47c0,.32,0,.63.08.94s0,.67.09,1,.07.55.1.82l.06.42c0,.12,0,.24.07.36s.06.4.09.59.1.56.16.85c0,0,0,.05,0,.06,0,.28.12.57.18.84s.14.57.21.86c.12.47.26.94.41,1.41a3.11,3.11,0,0,0,.16.49c.11.39.23.75.36,1.12l.12.31a1.66,1.66,0,0,0,.06.16q.18.5.39,1l.07.14s0,0,0,.08c.11.27.23.56.36.83a.77.77,0,0,0,.07.16c0,.07.06.15.1.22.12.26.24.51.37.76a3.18,3.18,0,0,0,.16.32c.16.32.32.63.49.94s.21.39.32.57.29.53.45.8l.08.11.49.8a4.56,4.56,0,0,0,.27.39,1.23,1.23,0,0,0,.15.22q.24.39.51.75l.3.41c.1.15.21.29.32.44.29.38.59.75.9,1.12s.39.48.6.71.33.38.5.57c.37.41.77.82,1.16,1.21s.56.56.86.83a.38.38,0,0,0,.12.1,6.53,6.53,0,0,0,.62.57,5.73,5.73,0,0,0,.45.39,4.1,4.1,0,0,0,.41.34c.37.31.74.61,1.13.91s.85.63,1.29.93.66.46,1,.67l.5.32q.38.24.75.45l.62.35c.4.23.82.45,1.23.65s.88.43,1.33.63a.48.48,0,0,0,.19.09l.15.06.36.17c.24.1.49.21.75.3a.48.48,0,0,0,.21.07.51.51,0,0,0,.17.07l.38.16a2.13,2.13,0,0,0,.33.11,1.17,1.17,0,0,0,.24.09l.34.12.38.12a5.24,5.24,0,0,0,.64.2.33.33,0,0,0,.16.05c.22.08.46.14.69.2a.25.25,0,0,0,.12,0l.91.23a.29.29,0,0,0,.16,0l.21.05c.43.1.86.2,1.3.27a1.43,1.43,0,0,0,.34.06c.34.08.69.13,1,.18l.36.05a.55.55,0,0,0,.22,0,14.45,14.45,0,0,0,1.49.16c.55.05,1.1.09,1.67.11s.89,0,1.33,0H395.11A34.49,34.49,0,0,0,419.57,386c.39-.39.79-.8,1.16-1.21.55-.62,1.09-1.25,1.6-1.91a8.8,8.8,0,0,0,.61-.79,1.37,1.37,0,0,0,.2-.26c.22-.3.44-.61.64-.92a.44.44,0,0,0,.08-.11.7.7,0,0,0,.1-.16,3.87,3.87,0,0,0,.24-.37A14.88,14.88,0,0,0,425,379a.59.59,0,0,0,.12-.19c.16-.26.32-.52.46-.8a3.24,3.24,0,0,0,.17-.32c.19-.33.36-.67.53-1,0,0,0,0,0,0l.3-.61a2.29,2.29,0,0,0,.1-.23,5,5,0,0,0,.3-.68c.09-.18.16-.35.23-.52.19-.45.38-.91.54-1.37,0,0,0,0,0,0s0,0,0,0a.44.44,0,0,0,.05-.15l.21-.54c.11-.31.2-.62.29-.93s.25-.8.36-1.21c0-.06,0-.12.05-.18l.12-.46c.12-.45.22-.9.32-1.37a.59.59,0,0,0,0-.14l.15-.74c0-.23.09-.44.11-.66a3.5,3.5,0,0,0,.07-.45.2.2,0,0,0,0-.11l0-.1c0-.31.09-.6.11-.91a5.51,5.51,0,0,0,.06-.57.44.44,0,0,0,0-.17l0-.28c0-.35.07-.69.08-1a2,2,0,0,0,0-.24c0-.17,0-.34,0-.52,0-.43,0-.85,0-1.29V150.9A35,35,0,0,0,395.11,115.85ZM116.89,150.9l121.44,76.45L256,238.48l17.67-11.13L395.11,150.9v35l-2,1.29-19.28,12.14-66.64,41.95-9.89,6.23-22,13.88L256,273.51l-19.22-12.09-22-13.88-9.89-6.23L152.24,208.2l-33.32-21-2-1.28Z"/>
      <path class="cls-1" d="M297.26,247.54l-22,13.88L256,273.51l-19.22-12.09-22-13.88L82.11,361.11A35.06,35.06,0,0,0,92.43,386a34.49,34.49,0,0,0,24.46,10.2H395.11A34.49,34.49,0,0,0,419.57,386a35.06,35.06,0,0,0,10.32-24.84Z"/>
      <path class="cls-2" d="M395.11,115.85H116.89c-19.12,0-34.59,15.78-34.59,35.05l-.1,108.67-.09,101.54L202.84,257.74h0l9.81-8.4,23.18,23.82h0l2.5,2.57L256,286.85l17.67-11.12,1.3-1.34,24.38-25.06,9.81,8.4h0L429.89,361.11V150.9A35,35,0,0,0,395.11,115.85ZM152.24,208.2l-33.32-21,.41-2.65-2.44-33.66,11.58,11.92,35.67,36.65,40.71,41.84Zm241.28-22.53-.45,1.55-19.28,12.14-66.64,41.95L344.43,203l39.1-40.17,11.58-11.92Z"/>
      <path class="cls-2" d="M128.47,162.82a10.45,10.45,0,0,0-11.58,10.45V150.9Z"/>
      <path class="cls-2" d="M395.11,150.9v22.37a10.45,10.45,0,0,0-11.58-10.45Z"/>
      <path class="cls-1" d="M297.26,247.54l-22,13.88L256,273.51l-19.22-12.09-22-13.88L82.11,361.11A35.06,35.06,0,0,0,92.43,386a34.49,34.49,0,0,0,24.46,10.2H395.11A34.49,34.49,0,0,0,419.57,386a35.06,35.06,0,0,0,10.32-24.84Z"/>
      <g>
        <path class="cls-3" d="M429.89,361.11a35.06,35.06,0,0,1-9.16,23.63c-.37.41-.77.82-1.16,1.21a34.49,34.49,0,0,1-24.46,10.2H116.89c-.44,0-.89,0-1.33,0A34.45,34.45,0,0,1,92.43,386a35,35,0,0,1-8.79-14.65,34.29,34.29,0,0,1-1.53-10.19L212.65,249.33l2.09-1.79,22,13.88L256,273.51l19.22-12.09,22-13.88,2.09,1.79Z"/>
        <path class="cls-2" d="M419.57,386a34.49,34.49,0,0,1-24.46,10.2H116.89A34.49,34.49,0,0,1,92.43,386L225.05,272.82l60,1.9Z"/>
      </g>
      <path class="cls-3" d="M395.11,173.27V181a10.44,10.44,0,0,1-2,6.23,10.85,10.85,0,0,1-1.73,1.86l-82.18,68.65h0L287,276.29l-13,10.86a28,28,0,0,1-35.9,0L223,274.58l-20.15-16.84h0l-82.18-68.65a10.59,10.59,0,0,1-1.74-1.87,10.45,10.45,0,0,1-2-6.22v-7.72a10.45,10.45,0,0,1,11.58-10.45,10.13,10.13,0,0,1,5.51,2.36l104.07,86.94a28,28,0,0,0,35.9,0L378,165.18a10.13,10.13,0,0,1,5.51-2.36A10.45,10.45,0,0,1,395.11,173.27Z"/>
    </g>
  </g>
</svg>
