<svg xmlns="http://www.w3.org/2000/svg" xmlns:xlink="http://www.w3.org/1999/xlink" viewBox="0 0 512 512">
  <defs>
    <style>
      .cls-1 {
        isolation: isolate;
      }

      .cls-2 {
        fill: #9980ff;
      }

      .cls-3 {
        fill: #1c1846;
        stroke: #9980ff;
        stroke-miterlimit: 10;
        stroke-width: 5.81px;
      }

      .cls-4 {
        mix-blend-mode: multiply;
        opacity: 0.09;
      }
    </style>
  </defs>
  <g class="cls-1">
    <g id="Ebene_5" data-name="Ebene 5">
      <g>
        <g>
          <path class="cls-2" d="M415.23,330.64A253.86,253.86,0,0,1,412.58,356c-5.25,30.4-62.82,73.68-156.48,73.68C146.73,429.67,103,375.24,100,358.19c-2.28-12.64-3.19-31.59-3.19-31.59l10.33-3.08,1.36,8.74c21.41-32.9,79.42-56.47,147.64-56.47,68,0,125.9,23.44,147.46,56.19l1.33-8.46Z"/>
          <ellipse class="cls-3" cx="256.11" cy="326.6" rx="156.48" ry="84.51"/>
        </g>
        <g>
          <path class="cls-2" d="M415.23,250.76a253.86,253.86,0,0,1-2.65,25.35c-5.25,30.4-62.82,73.68-156.48,73.68C146.73,349.79,103,295.36,100,278.31c-2.28-12.64-3.19-31.59-3.19-31.59l10.33-3.07,1.36,8.74c21.41-32.91,79.42-56.48,147.64-56.48,68,0,125.9,23.44,147.46,56.2l1.33-8.46Z"/>
          <ellipse class="cls-3" cx="256.11" cy="246.72" rx="156.48" ry="84.51"/>
        </g>
        <g>
          <path class="cls-2" d="M415.23,170.89a253.5,253.5,0,0,1-2.65,25.34c-5.25,30.41-62.82,73.69-156.48,73.69C146.73,269.92,103,215.49,100,198.44c-2.28-12.64-3.19-31.59-3.19-31.59l10.33-3.08,1.36,8.74C129.87,139.61,187.88,116,256.1,116c68,0,125.9,23.44,147.46,56.19l1.33-8.46Z"/>
          <ellipse class="cls-3" cx="256.11" cy="166.85" rx="156.48" ry="84.51"/>
        </g>
        <g class="cls-4">
          <image width="433" height="411" transform="translate(140.89 62.51) scale(0.48)" xlink:href="preise_dark1.png"/>
        </g>
        <path class="cls-2" d="M273.2,171.66H228.54a4.38,4.38,0,0,0-4,6.2,38.71,38.71,0,0,0,13.33,15.64c8,5.47,18,8.26,30,8.26a75,75,0,0,0,21.89-3.16,49,49,0,0,0,11.95-5.31,4.36,4.36,0,0,1,6.47,2.5l4.19,14a4.39,4.39,0,0,1-2.23,5.18,70.32,70.32,0,0,1-17.4,5.68,134.53,134.53,0,0,1-27.27,2.71c-21,0-38-5.09-50.7-14.94A55.39,55.39,0,0,1,194,175.16a4.4,4.4,0,0,0-4.29-3.5h-8.25a4.39,4.39,0,0,1-4.32-5.12l1-6.17a4.39,4.39,0,0,1,4.32-3.65h6.34a4.36,4.36,0,0,0,4.36-3.86c.07-.64.15-1.28.23-1.92s.17-1.22.27-1.83a4.39,4.39,0,0,0-4.31-5.14h-3.23a4.39,4.39,0,0,1-4.32-5.12l.71-4.12a4.37,4.37,0,0,1,4.32-3.65h9.49a4.37,4.37,0,0,0,3.85-2.29,52.44,52.44,0,0,1,22.3-22c10.11-5.35,22.16-8,36.43-8a113.74,113.74,0,0,1,19.24,1.57,93.73,93.73,0,0,1,13.08,3.18,4.37,4.37,0,0,1,2.83,5.36l-1.18,4.19A4.38,4.38,0,0,1,287,116a60.55,60.55,0,0,0-11-3.48A72,72,0,0,0,261.29,111c-9.1,0-16.61,1.68-22.65,5.08a33.67,33.67,0,0,0-9.44,7.82,4.39,4.39,0,0,0,3.4,7.17H282a4.38,4.38,0,0,1,4.22,5.56L285,140.77a4.38,4.38,0,0,1-4.22,3.2H224.48a4.38,4.38,0,0,0-4.37,3.91c-.09.85-.16,1.71-.21,2.59,0,.55-.06,1.11-.09,1.66a4.4,4.4,0,0,0,4.38,4.59h50.65a4.38,4.38,0,0,1,4.23,5.51l-1.63,6.17A4.39,4.39,0,0,1,273.2,171.66Z"/>
      </g>
    </g>
  </g>
</svg>
