<svg xmlns="http://www.w3.org/2000/svg" xmlns:xlink="http://www.w3.org/1999/xlink" viewBox="0 0 512 512">
  <defs>
    <style>
      .cls-1 {
        fill: none;
      }

      .cls-2 {
        isolation: isolate;
      }

      .cls-3 {
        fill: #eff0ff;
      }

      .cls-4 {
        fill: #9980ff;
      }

      .cls-5 {
        clip-path: url(#clip-path);
      }

      .cls-6 {
        mix-blend-mode: multiply;
        opacity: 0.12;
      }
    </style>
    <clipPath id="clip-path">
      <path class="cls-1" d="M428.55,196.27V381.19a45.5,45.5,0,0,1-45.37,45.37H131.11a45.52,45.52,0,0,1-45.38-45.39V196.27a28.2,28.2,0,0,1,28.19-28.19H400.36a28.21,28.21,0,0,1,28.19,28.19Z"/>
    </clipPath>
  </defs>
  <g class="cls-2">
    <g id="Ebene_5" data-name="Ebene 5">
      <g>
        <path class="cls-3" d="M428.55,196.27V381.19a45.5,45.5,0,0,1-45.37,45.37H131.11a45.52,45.52,0,0,1-45.38-45.39V196.27a28.2,28.2,0,0,1,28.19-28.19H400.36a28.21,28.21,0,0,1,28.19,28.19Z"/>
        <path class="cls-4" d="M266.25,248.92l12.69,39a9.56,9.56,0,0,0,9.1,6.62h41a9.57,9.57,0,0,1,5.63,17.32L301.51,336a9.57,9.57,0,0,0-3.48,10.7l12.68,39A9.57,9.57,0,0,1,296,396.45l-33.2-24.12a9.58,9.58,0,0,0-11.26,0l-33.2,24.12a9.57,9.57,0,0,1-14.73-10.7l12.68-39a9.57,9.57,0,0,0-3.48-10.7l-33.2-24.12a9.57,9.57,0,0,1,5.62-17.32h41a9.57,9.57,0,0,0,9.1-6.62l12.68-39A9.57,9.57,0,0,1,266.25,248.92Z"/>
        <g class="cls-5">
          <g class="cls-6">
            <image width="865" height="322" transform="translate(49.42 143.64) scale(0.48)" xlink:href="events1.png"/>
          </g>
        </g>
        <path class="cls-4" d="M428.56,180.11V190.9a28.2,28.2,0,0,1-28.2,28.19H113.92A28.19,28.19,0,0,1,85.73,190.9V180.12a45.51,45.51,0,0,1,45.39-45.38H383.18A45.51,45.51,0,0,1,428.56,180.11Z"/>
        <path class="cls-3" d="M428.56,162.46v10.78a22.91,22.91,0,0,1-.18,3v0a27.25,27.25,0,0,1-2.29,8.47,28.14,28.14,0,0,1-25.72,16.67H113.92A28.14,28.14,0,0,1,88.2,184.75a27.25,27.25,0,0,1-2.29-8.47v0a23,23,0,0,1-.18-3V162.47a45.52,45.52,0,0,1,45.38-45.39H383.19A45.5,45.5,0,0,1,428.56,162.46Z"/>
      </g>
      <g>
        <path class="cls-4" d="M345.64,117.08v45.51a14.32,14.32,0,0,1-27.55,5.49,14.12,14.12,0,0,1-1.09-5.49V117.08Z"/>
        <path class="cls-4" d="M197.31,117.08v45.51a14.12,14.12,0,0,1-1.1,5.49,14.32,14.32,0,0,1-27.55-5.49V117.08Z"/>
      </g>
    </g>
  </g>
</svg>
