<svg id="Ebene_1" data-name="Ebene 1" xmlns="http://www.w3.org/2000/svg" viewBox="0 0 512 512">
  <defs>
    <style>
      .cls-1 {
        fill: #eff0ff;
      }
    </style>
  </defs>
  <g id="Purple_Icon" data-name="Purple Icon">
    <g>
      <path class="cls-1" d="M93.35,191a7.24,7.24,0,0,1-4.52-6.7V160.78c0-29.54,33.64-32.16,60.42-27.87,46.48,7.45,75,32.79,75,72.36v183c0,36.77-27,29.14-75.16-13.19l-3.15-2.77c-36.87-32.41-57.09-61.55-57.09-92.23V226.48A5.46,5.46,0,0,1,94.29,221a5.57,5.57,0,0,1,2.47.58l45.82,23.18a11.82,11.82,0,0,1,6.49,10.55v13.75a7.22,7.22,0,0,1-11,6.18l-9.33-5.65a3.15,3.15,0,0,0-4.32,1.06,3.2,3.2,0,0,0-.45,1.63v13.53c0,16,9.13,26.47,23.48,37.6,15.67,12.15,27.25,15.94,27.25-2.62V206c0-18.57-11.58-26.72-27.25-30.74-14.35-3.67-23.48-1.53-23.48,14.46v2.94a7.22,7.22,0,0,1-9.93,6.69Z"/>
      <g>
        <path class="cls-1" d="M418.67,191a7.25,7.25,0,0,0,4.51-6.7V160.78c0-29.54-33.64-32.16-60.42-27.87-46.48,7.45-75,32.79-75,72.36v183c0,36.77,27,29.14,75.16-13.19l3.15-2.77c36.87-32.41,57.09-61.55,57.09-92.23V226.48a5.46,5.46,0,0,0-5.46-5.46,5.57,5.57,0,0,0-2.47.58l-45.82,23.18a11.82,11.82,0,0,0-6.49,10.55v13.75a7.22,7.22,0,0,0,11,6.18l9.33-5.65A3.14,3.14,0,0,1,388,272.3v13.53c0,16-9.13,26.47-23.48,37.6-15.67,12.15-27.25,15.94-27.25-2.62V206c0-18.57,11.58-26.72,27.25-30.74,14.35-3.67,23.48-1.53,23.48,14.46v2.94a7.22,7.22,0,0,0,9.94,6.7Z"/>
        <path class="cls-1" d="M256,95.44c-77.69-.51-170.4-1.72-170.4,38.15,0,1.64,9.54-24.86,65.42-18.46,88.55,10.15,94.34,70.91,94.34,90.14V396.86c-1,15.23-9.25,19.49-9.25,19.49l19.88.35,19.88-.35s-8.21-4.26-9.25-19.49V205.27c0-19.23,5.8-80,94.34-90.14,55.88-6.4,65.42,20.11,65.42,18.46C426.41,93.72,333.69,94.93,256,95.44Z"/>
      </g>
    </g>
  </g>
</svg>
