<svg xmlns="http://www.w3.org/2000/svg" viewBox="0 0 512 512">
  <defs>
    <style>
      .cls-1 {
        fill: #9980ff;
      }
    </style>
  </defs>
  <g id="Ebene_13" data-name="Ebene 13">
    <g>
      <path class="cls-1" d="M298,114.31v47.6a132.35,132.35,0,0,1,90.14,125.28C388.11,360,328.85,419.3,256,419.3S123.89,360,123.89,287.19A132.35,132.35,0,0,1,214,161.91v-47.6c-77.9,18.91-135.92,89.25-135.92,172.88,0,98.08,79.81,177.88,177.89,177.88s177.89-79.8,177.89-177.88C433.89,203.56,375.87,133.22,298,114.31Z"/>
      <path class="cls-1" d="M277.78,76V260.59c0,16.07-9.15,29.1-20.44,29.1h-2.68c-11.29,0-20.44-13-20.44-29.1V76c0-16.07,9.15-29.1,20.44-29.1h2.68C268.63,46.93,277.78,60,277.78,76Z"/>
    </g>
  </g>
</svg>
