<svg xmlns="http://www.w3.org/2000/svg" viewBox="0 0 512 512">
  <defs>
    <style>
      .cls-1 {
        fill: #9980ff;
      }

      .cls-2 {
        fill: #eff0ff;
      }
    </style>
  </defs>
  <g id="Mail">
    <path class="cls-1" d="M472.16,125.35V386.67L322.09,258.17v0l102.15-85.34a15.09,15.09,0,0,0,4.67-9.4c0-.22,0-.44,0-.65v-9.6a13,13,0,0,0-14.41-13,12.82,12.82,0,0,0-6.85,2.95L278.32,251.17a34.78,34.78,0,0,1-44.65,0L104.31,143.1a12.85,12.85,0,0,0-6.85-2.95,13,13,0,0,0-14.41,13v9.6c0,.21,0,.43,0,.65a15,15,0,0,0,4.67,9.4L189.9,258.15v0L39.83,386.67V125.35c0-24,19.45-43.57,43.22-43.57H428.94C452.71,81.78,472.16,101.39,472.16,125.35Z"/>
    <path class="cls-1" d="M459.35,417.55a42.93,42.93,0,0,1-30.41,12.68H83.05a42.93,42.93,0,0,1-30.41-12.68L217.49,281.21l16.18,13.52a35.89,35.89,0,0,0,3.79,2.76c.87.54,1.75,1.05,2.66,1.51.45.24.91.46,1.37.67.79.36,1.59.7,2.41,1a34.79,34.79,0,0,0,24.19,0c.82-.3,1.62-.64,2.41-1,.46-.21.92-.43,1.37-.67.91-.46,1.79-1,2.66-1.51a35.89,35.89,0,0,0,3.79-2.76l16.17-13.52Z"/>
    <path class="cls-2" d="M472.16,386.67c0,.46,0,.91,0,1.36,0,.25,0,.49,0,.74a.53.53,0,0,1,0,.13v.17c0,.05,0,.1,0,.15,0,.27,0,.53,0,.8s0,.43-.06.64v0a.84.84,0,0,0,0,.18,1.34,1.34,0,0,1,0,.2c0,.12,0,.24,0,.36s0,.31,0,.46l-.06.47a.57.57,0,0,1,0,.18,3,3,0,0,1-.06.46,1.53,1.53,0,0,1-.05.32c0,.19-.06.41-.1.6s-.05.34-.08.51,0,.17-.05.25a1.1,1.1,0,0,1,0,.16s0,.05,0,.09l-.09.42c0,.05,0,.09,0,.13a.94.94,0,0,0,0,.16c-.06.3-.12.58-.19.87,0,.1-.05.19-.07.29s-.09.37-.14.56-.07.32-.12.47a3,3,0,0,1-.09.32c-.06.24-.12.47-.2.71,0,0,0,0,0,.06-.06.23-.14.45-.21.66a.11.11,0,0,1,0,.06v0c0,.06,0,.12-.07.18-.1.33-.2.64-.31,1a2.19,2.19,0,0,1-.12.33,1.89,1.89,0,0,0-.06.18c0,.05-.05.11-.08.17a.22.22,0,0,1,0,.08v0s0,0,0,0a.09.09,0,0,0,0,.06h0l-.15.39c-.07.2-.16.41-.23.61h0L469,403a3.35,3.35,0,0,1-.15.35c-.15.38-.31.75-.49,1.13a2,2,0,0,1-.12.26.94.94,0,0,1-.06.15c0,.1-.09.18-.14.28-.14.33-.3.65-.47,1-.08.16-.16.34-.25.5s-.23.45-.36.67a.68.68,0,0,1-.09.17c0,.09-.09.17-.12.24-.16.29-.33.57-.5.85,0,0,0,0,0,0a.49.49,0,0,1-.1.16s0,0,0,0c-.14.28-.3.54-.47.81a6.65,6.65,0,0,1-.36.56l-.08.11a.43.43,0,0,1-.07.1c0,.08-.09.15-.14.23a1.5,1.5,0,0,1-.15.23,2.33,2.33,0,0,1-.17.26s0,0,0,0a.72.72,0,0,1-.13.19l-.29.42c-.28.42-.58.82-.89,1.22,0,0,0,0,0,0a2.12,2.12,0,0,1-.27.34,1.58,1.58,0,0,1-.24.3c-.28.38-.58.76-.89,1.12s-.72.84-1.09,1.25-.95,1-1.43,1.51L294.49,281.21l-16.17,13.52a35.89,35.89,0,0,1-3.79,2.76c-.87.54-1.75,1.05-2.66,1.51-.45.24-.91.46-1.37.67-.79.36-1.59.7-2.41,1a34.79,34.79,0,0,1-24.19,0c-.82-.3-1.62-.64-2.41-1-.46-.21-.92-.43-1.37-.67-.91-.46-1.79-1-2.66-1.51a35.89,35.89,0,0,1-3.79-2.76l-16.18-13.52L52.64,417.55c-.48-.49-1-1-1.43-1.51s-.74-.83-1.09-1.25-.61-.74-.9-1.12a2,2,0,0,1-.23-.3,2.12,2.12,0,0,1-.27-.34s0,0,0,0c-.31-.4-.61-.8-.89-1.22l-.29-.42a.72.72,0,0,1-.13-.19s0,0,0,0a2.33,2.33,0,0,1-.17-.26.75.75,0,0,1-.15-.23c0-.08-.1-.15-.14-.23a.43.43,0,0,1-.07-.1l-.08-.11a4.83,4.83,0,0,1-.36-.56,7.39,7.39,0,0,1-.47-.81s-.05,0,0,0a.49.49,0,0,1-.1-.16s0,0,0,0c-.18-.28-.34-.56-.5-.85a1.34,1.34,0,0,1-.12-.24.68.68,0,0,1-.09-.17,7.3,7.3,0,0,1-.36-.67c-.09-.16-.17-.34-.25-.5-.17-.32-.33-.64-.47-1,0-.1-.1-.18-.14-.28a.94.94,0,0,1-.06-.15,2,2,0,0,1-.12-.26c-.18-.38-.34-.75-.49-1.13A3.35,3.35,0,0,1,43,403l-.15-.35h0c-.07-.2-.16-.41-.23-.61l-.15-.39h0a.15.15,0,0,0,0-.06s0,0,0,0v0a.22.22,0,0,1,0-.08c0-.06,0-.12-.08-.17a1.89,1.89,0,0,0-.06-.18,2.19,2.19,0,0,1-.12-.33c-.12-.32-.21-.63-.31-1,0-.06,0-.12-.07-.18v0a.11.11,0,0,1,0-.06c-.07-.21-.15-.43-.21-.66,0,0,0,0,0-.06-.08-.24-.14-.47-.2-.71a3,3,0,0,1-.09-.32,3.59,3.59,0,0,1-.12-.47c0-.19-.1-.38-.14-.56s-.05-.19-.07-.29c-.07-.29-.13-.57-.19-.87,0-.05,0-.11,0-.16s0-.08,0-.13l-.09-.42s0-.06,0-.09a1.1,1.1,0,0,1,0-.16c0-.08,0-.17,0-.25s-.06-.33-.08-.51-.08-.41-.1-.6a1.53,1.53,0,0,1-.05-.32c0-.14,0-.29-.07-.46a1.1,1.1,0,0,1,0-.18c0-.15,0-.31-.06-.47s0-.3,0-.46,0-.24,0-.36a1.34,1.34,0,0,1,0-.2.84.84,0,0,0,0-.18v0c0-.21,0-.42-.06-.64s0-.53-.05-.8c0-.05,0-.1,0-.15v-.17a.53.53,0,0,1,0-.13c0-.25,0-.49,0-.74,0-.45,0-.9,0-1.36L189.9,258.17v0L87.75,172.81a15,15,0,0,1-4.67-9.4c0-.22,0-.44,0-.65v-9.6a13,13,0,0,1,14.41-13,12.85,12.85,0,0,1,6.85,2.95L233.67,251.17a34.78,34.78,0,0,0,44.65,0L407.68,143.1a12.82,12.82,0,0,1,6.85-2.95,13,13,0,0,1,14.41,13v9.6c0,.21,0,.43,0,.65a15.09,15.09,0,0,1-4.67,9.4L322.09,258.15v0Z"/>
  </g>
</svg>
