<svg id="Ebene_1" data-name="Ebene 1" xmlns="http://www.w3.org/2000/svg" viewBox="0 0 512 512">
  <defs>
    <style>
      .cls-1, .cls-3 {
        fill: #eff0ff;
      }

      .cls-2 {
        fill: #9980ff;
      }

      .cls-3 {
        stroke: #9980ff;
        stroke-miterlimit: 10;
        stroke-width: 18px;
      }
    </style>
  </defs>
  <g>
    <g>
      <path class="cls-1" d="M121.57,426.44a13.24,13.24,0,0,1-9.63-3.57L89.13,400.06c-5.91-5.91-4.34-17.79,3.65-27.63l155.79-192c23.3-28.72,50.49-48.78,66.11-48.78a12.88,12.88,0,0,1,9.48,3.58l52.58,52.58c2.58,2.58,3.78,6.11,3.55,10.5-.81,15.7-20.86,42.47-48.74,65.1l-192,155.78C133.92,423.81,127.36,426.44,121.57,426.44Z"/>
      <path class="cls-2" d="M314.68,135.18a9.5,9.5,0,0,1,7,2.56l52.58,52.57c10.35,10.35-12,43.71-44.93,70.41l-192,155.78c-5.22,4.24-11.05,6.44-15.8,6.44a9.87,9.87,0,0,1-7.15-2.54L91.6,397.58c-4.49-4.49-2.95-14.51,3.9-22.95l155.78-192c22.22-27.38,49.06-47.48,63.4-47.48m0-7h0c-10.81,0-23.88,8.09-32.94,14.87-12.05,9-24.79,21.52-35.89,35.2l-155.79,192c-9.27,11.43-10.7,25-3.41,32.31l22.82,22.82a16.67,16.67,0,0,0,12.1,4.59c6.57,0,13.94-2.91,20.21-8l192-155.79a212.63,212.63,0,0,0,34.68-35.21c6.7-8.83,14.8-21.62,15.36-32.42.35-6.75-2.3-10.88-4.57-13.16l-52.58-52.57a16.34,16.34,0,0,0-12-4.61Z"/>
    </g>
    <g>
      <path class="cls-1" d="M343.43,247a78.47,78.47,0,0,1-55.49-133.95c1.79-1.79,3.71-3.53,5.71-5.18A78.47,78.47,0,0,1,401.44,221.42c-.94,1-1.76,1.88-2.53,2.64A77.94,77.94,0,0,1,343.43,247Z"/>
      <path class="cls-2" d="M343.42,93.61a75,75,0,0,1,55.43,125.45c-.78.85-1.59,1.7-2.42,2.53a75,75,0,0,1-106-106c1.76-1.76,3.59-3.41,5.46-4.95a74.71,74.71,0,0,1,47.55-17m0-7v0a82.08,82.08,0,0,0-52,18.6c-2.08,1.72-4.09,3.54-6,5.41A82,82,0,0,0,401.38,226.54c.82-.81,1.67-1.71,2.62-2.73a82,82,0,0,0-60.58-137.2Z"/>
    </g>
    <g>
      <path class="cls-1" d="M348,242.49a78.47,78.47,0,0,1-55.5-133.95c1.8-1.8,3.72-3.54,5.71-5.18A78.47,78.47,0,0,1,406,216.87c-.93,1-1.76,1.87-2.53,2.64A77.9,77.9,0,0,1,348,242.49Z"/>
      <path class="cls-2" d="M348,89.06a75,75,0,0,1,55.44,125.45c-.79.85-1.59,1.7-2.42,2.52A75,75,0,0,1,295,111c1.75-1.75,3.58-3.41,5.46-5a74.67,74.67,0,0,1,47.54-17m0-7v0a82,82,0,0,0-52,18.59c-2.08,1.72-4.09,3.54-6,5.41A82,82,0,1,0,405.94,222c.81-.81,1.66-1.7,2.61-2.72A82,82,0,0,0,348,82.06Z"/>
    </g>
    <path class="cls-3" d="M402.33,218.11a311.21,311.21,0,0,1-54.7-43.58c-21.74-21.74-38.81-48.69-49.82-69.75"/>
    <rect class="cls-2" x="239.81" y="238.8" width="22.18" height="44.58" rx="7.81" transform="translate(258.11 -100.94) rotate(45)"/>
  </g>
</svg>
