<svg xmlns="http://www.w3.org/2000/svg" viewBox="0 0 512 512">
  <defs>
    <style>
      .cls-1 {
        fill: #9980ff;
      }

      .cls-2 {
        fill: #eff0ff;
      }
    </style>
  </defs>
  <g id="TutorialsPurple">
    <g id="Birne">
      <path class="cls-1" d="M339.55,241.52A92.38,92.38,0,0,1,307,311.63a26.31,26.31,0,0,0-8.92,13.28,18.05,18.05,0,0,1-15.77,12.8l-42.06,3.8-12.64,1.14H207.35a11.13,11.13,0,0,1-11.13-11.13v0A26.1,26.1,0,0,0,187,311.63a92.56,92.56,0,0,1,61.29-163C298.8,149.3,339.74,191,339.55,241.52Z"/>
      <path class="cls-1" d="M290.38,363.79l-43.9,3.95-43.9,4a6.7,6.7,0,1,1-1.2-13.35l43.89-4,43.9-4a6.56,6.56,0,0,1,1.33,0,6.71,6.71,0,0,1-.12,13.35Z"/>
      <path class="cls-1" d="M290.5,350.44l-49,4.42-41.37,3.73a6.69,6.69,0,0,1,1.29-.24l43.89-4,43.9-4A6.56,6.56,0,0,1,290.5,350.44Z"/>
      <path class="cls-1" d="M291.42,375.4l-43.9,4-43.89,4a6.71,6.71,0,0,0-6.08,7.28h0a6.72,6.72,0,0,0,7.29,6.08l43.89-4,43.89-4a6.71,6.71,0,0,0,6.08-7.28h0A6.71,6.71,0,0,0,291.42,375.4Z"/>
      <path class="cls-1" d="M297.78,413.87V419c0,4.79-1.82,8.78-7,9.14a6.68,6.68,0,0,0-6.34,6.6v.52a13.07,13.07,0,0,1-13,13H222.58a13.06,13.06,0,0,1-13-13v-.52a6.69,6.69,0,0,0-6.35-6.6c-5.17-.36-7-4.35-7-9.14,0,0,0-1.29,0-2.84a5.65,5.65,0,0,1,5.14-5.55l16.61-1.5,36.88-3.33q14.83-1.33,29.76-1.34h3.72A9.41,9.41,0,0,1,297.78,413.87Z"/>
    </g>
    <g id="Glow">
      <path class="cls-1" d="M247,131.47a9,9,0,0,1-9-9V72.69a9,9,0,0,1,18,0v49.78A9,9,0,0,1,247,131.47Z"/>
      <path class="cls-1" d="M177,154.22a9,9,0,0,1-7.29-3.71l-29.25-40.27A9,9,0,0,1,155,99.66l29.26,40.27A9,9,0,0,1,177,154.22Z"/>
      <path class="cls-1" d="M133.72,213.78a9,9,0,0,1-2.78-.45L83.6,198a9,9,0,0,1,5.56-17.12l47.34,15.39a9,9,0,0,1-2.78,17.56Z"/>
      <path class="cls-1" d="M86.38,302.77a9,9,0,0,1-2.78-17.56l47.34-15.38A9,9,0,1,1,136.5,287L89.16,302.33A9,9,0,0,1,86.38,302.77Z"/>
      <path class="cls-1" d="M407.63,302.77a9,9,0,0,1-2.79-.44L357.5,287a9,9,0,1,1,5.56-17.12l47.35,15.38a9,9,0,0,1-2.78,17.56Z"/>
      <path class="cls-1" d="M360.28,213.77a9,9,0,0,1-2.78-17.56l47.34-15.38A9,9,0,0,1,410.4,198l-47.34,15.38A9,9,0,0,1,360.28,213.77Z"/>
      <path class="cls-1" d="M317,154.22a9,9,0,0,1-7.27-14.29L339,99.66a9,9,0,1,1,14.56,10.58l-29.26,40.27A9,9,0,0,1,317,154.22Z"/>
    </g>
  </g>
  <g id="TutorialShine">
    <g id="Shine">
      <path class="cls-2" d="M320,246.13a8.49,8.49,0,0,1-8.5-8.5c0-32.3-21.09-55.75-50.15-55.75a8.5,8.5,0,0,1,0-17c19.22,0,36.61,7.73,48.95,21.76,11.74,13.34,18.2,31.45,18.2,51A8.5,8.5,0,0,1,320,246.13Z"/>
    </g>
  </g>
</svg>
