<svg xmlns="http://www.w3.org/2000/svg" viewBox="0 0 2325.33 616.61">
  <defs>
    <style>
      .cls-1 {
        isolation: isolate;
      }

      .cls-2 {
        mix-blend-mode: difference;
        opacity: 0.3;
      }

      .cls-3 {
        fill: #eff0ff;
      }
    </style>
  </defs>
  <g class="cls-1">
    <g id="Ebene_11" data-name="Ebene 11">
      <path class="cls-3" d="M567.12,115.82H243.77a29.61,29.61,0,0,0-29.69,29.68V471.11a29.62,29.62,0,0,0,29.69,29.69H567.44a29.62,29.62,0,0,0,29.69-29.69V145.5A29.89,29.89,0,0,0,567.12,115.82ZM248,302.66,413.19,137.44l79.06,79.06L327,381.72Zm307.85,29.69a85.61,85.61,0,0,1-21.62,35.82l-110,110-80-80L509.35,233,531,254.58c11.3,11.29,19.37,23.55,23.56,38.07C559.05,305.89,560,319.12,555.82,332.35Z"/>
      <g>
        <rect class="cls-3" x="1665.26" y="216.5" width="65.83" height="28.72"/>
        <path class="cls-3" d="M906.27,310.73c0-17.43,8.07-32,25.82-42.28,17.42-11.29,40-16.46,68.73-16.46,32.92,0,58.41,6.14,74.87,19.37,13.23,10.32,20.65,23.55,20.65,39,0,17.43-8.07,32-25.81,43.24-17.43,11.3-40,16.46-69.71,16.46-26.78,0-48.4-5.16-64.86-14.52-20.33-11-29.69-26.14-29.69-44.85m63.57,0c0,10.32,3.23,17.42,9.36,22.58s13.23,7.1,22.59,7.1,16.46-1.93,22.59-7.1,8.07-12.26,8.07-22.58-3.23-17.43-9.36-21.63c-6.13-5.16-13.23-7.09-21.62-7.09-9.36,0-16.46,1.93-22.59,7.09C973.07,293.3,969.84,301.69,969.84,310.73Z"/>
        <path class="cls-3" d="M1760.78,310.73c0-17.43,8.06-32,25.81-42.28,17.43-11.29,40-16.46,68.74-16.46,32.91,0,58.41,6.14,74.86,19.37,13.23,10.32,20.66,23.55,20.66,39,0,17.43-8.07,32-25.82,43.24-17.43,11.3-40,16.46-69.7,16.46-26.79,0-48.41-5.16-64.86-14.52-19.37-11-29.69-26.14-29.69-44.85m63.57,0c0,10.32,3.23,17.42,9.36,22.58s13.23,7.1,22.59,7.1,16.45-1.93,22.58-7.1,8.07-12.26,8.07-22.58-3.22-17.43-9.36-21.63c-6.13-5.16-13.23-7.09-21.62-7.09-9.36,0-16.45,1.93-22.59,7.09C1827.58,293.3,1824.35,301.69,1824.35,310.73Z"/>
        <path class="cls-3" d="M1370.63,290.4l-58.4-4.2c1.93-7.1,5.16-12.26,9.35-17.42A43.93,43.93,0,0,1,1339,258.45a106.23,106.23,0,0,1,22.59-5.16c10.33-1,20.65-1.94,32-1.94,18.39,0,32.91,1,44.21,1.94s20.65,4.19,27.75,9.35a37.08,37.08,0,0,1,12.26,13.23,33.66,33.66,0,0,1,4.2,16.46v77.13h-54.54V352c-8.07,5.16-16.46,9.36-23.56,11.3-10.32,3.22-23.55,5.16-38.08,5.16-19.36,0-32.91-3.23-43.24-9.36S1308,344.61,1308,336.54s3.23-15.49,10.33-21.62,20.65-9.36,39-12.26c22.59-3.23,38.08-6.13,44.21-7.1,7.1-1,14.53-3.23,21.62-5.16,0-5.17-1-9.36-5.16-11.3-3.23-1.93-8.07-3.23-16.46-3.23-10.32,0-17.42,1-22.58,3.23a32.44,32.44,0,0,0-8.4,11.3M1422.91,314c-8.07,1.94-17.42,4.2-26.78,6.13-12.26,1.94-20.65,4.2-23.56,7.1-3.23,1.94-5.16,5.17-5.16,8.07s1.93,6.13,5.16,8.07,8.07,3.23,14.52,3.23a54.18,54.18,0,0,0,19.36-3.23c6.14-1.94,10.33-5.16,12.27-8.07s3.22-8.07,3.22-13.23l1-8.07Z"/>
        <path class="cls-3" d="M1973.44,254.25h59.69v18.4c9.36-8.07,17.43-13.23,26.79-16.46a102,102,0,0,1,32.91-5.16c17.43,0,32,3.22,42.28,11.29q15.48,10.65,15.49,33.88v73.9h-64.87V306.53c0-7.1-1.93-12.26-6.13-15.49s-9.36-4.19-16.45-4.19c-8.07,0-14.53,1.93-18.4,6.13-4.19,4.19-7.1,11.29-7.1,21.62v55.5h-64.86l.65-115.85Z"/>
        <path class="cls-3" d="M699.75,254.25h59.69v18.4c9.36-8.07,17.43-13.23,26.79-16.46A102,102,0,0,1,819.14,251c17.43,0,32,3.22,42.28,11.29Q876.9,273,876.91,296.2v73.9H812V306.53c0-7.1-1.93-12.26-6.13-15.49s-9.36-4.19-16.45-4.19c-8.07,0-14.53,1.93-18.4,6.13-5.16,4.19-7.1,11.29-7.1,21.62v55.5H699.1l.65-115.85Z"/>
        <path class="cls-3" d="M1537.79,220.37h62.61v31.95h30.65v25.81H1600.4v27.76c0,16.45,30.65,17.42,30.65,17.42v47.11H1600.4s-63.58,4.2-63.58-58.4V279.1H1512.3V254.58h24.52l1-34.21Z"/>
        <rect class="cls-3" x="1665.26" y="252.32" width="65.83" height="118.11"/>
        <polygon class="cls-3" points="1105.38 252.32 1169.27 252.32 1200.9 322.02 1232.84 252.32 1295.45 252.32 1238.97 370.43 1163.14 370.43 1105.38 252.32"/>
      </g>
    </g>
  </g>
</svg>
