<svg xmlns="http://www.w3.org/2000/svg" viewBox="0 0 2325.33 497.78">
  <defs>
    <style>
      .cls-1 {
        isolation: isolate;
      }

      .cls-2 {
        mix-blend-mode: difference;
        opacity: 0.3;
      }

      .cls-3 {
        fill: #eff0ff;
      }
    </style>
  </defs>
  <g class="cls-1">
    <g id="Ebene_11" data-name="Ebene 11">
      <g id="layer1">
        <g id="g42252">
          <g id="g41979">
            <path id="path41981" class="cls-3" d="M1303,108.68V370s.07,11.4,11.44,11.4h31.23c11.39,0,11.34-11.35,11.34-11.35l0-261.35s0-11.4-11.39-11.4h-31.23c-11.4,0-11.4,11.37-11.44,11.41"/>
          </g>
          <g id="g41983">
            <path id="path41985" class="cls-3" d="M1429.73,321.5a22.66,22.66,0,0,0,10,17.32c28.67,18.83,103.61,11.44,103.81-43.26,0-4.11-4.23-6.28-7.21-6.66-5.84-.79-69.29-2.13-95,11.44-8.61,4.53-11.91,11.93-11.63,21.16,0,0-51.09.19-51.09,0-.19-29.12,21.93-57.13,50.94-61.72,20-3.18,32.51-5.88,106-9.64,4.86-.24,13.46-9.64,7.14-18.67-9.88-14.07-17.94-20.9-48.45-20.9-27.58,0-42.3,5.63-51.41,20.88-1.74,2.93-7.75,8-13.75,8l-34.95-.1c-4.12,0-8.87-4.87-7.23-8.86,16.34-39.44,49.85-58.86,101.1-58.91,45.83,0,105.64,17,105.64,80.88L1593.61,370c.05,0,0,11.35-11.33,11.35h-18.63c-9.11,0-13.26-2.21-16.23-11.4-1.14-3.63-5.33-6.24-9-3.06-29.81,25.94-95.27,32-130.52,7-20.35-14.42-29.3-33.35-29.3-52.45,0,0,51.09-.05,51.09,0"/>
          </g>
          <g id="g41987">
            <path id="path41989" class="cls-3" d="M1843.19,370V254.79c0-51.57-45.47-83.16-78.7-83.16-33,0-61,8.57-82.69,26-1.89,1.52-7.31,3.22-7.31-1.53l-.07-11.83s0-11.36-11.37-11.35h-26.92s-11.41,0-11.41,11.3l0,185.78c0,11.35,11.41,11.36,11.41,11.36l27,0c11.31,0,11.31-11.37,11.26-11.39l.05-90.77c0-25.08,17-67.92,72.82-67.92,39.89,0,46.27,27.4,46.27,43.48l0,115.26c0,11.35,11.39,11.31,11.39,11.31l27,0s11.35,0,11.31-11.4"/>
          </g>
          <g id="g41991">
            <path id="path41993" class="cls-3" d="M1156.41,390.19c90.8,0,128.87-58.73,128.8-108.48C1285.14,234,1247,173.1,1155.62,173.1c-91.2,0-129.35,60.76-129.35,108.62,0,50.74,38.52,108.47,130.14,108.47V351.32c-53.09,0-77.42-39.26-77.42-69.29s25.45-69.79,76.68-69.79,76.81,39.47,76.81,69.51c0,30.4-25,69.57-76.07,69.57"/>
          </g>
          <g id="g41995">
            <path id="path41997" class="cls-3" d="M1916.82,279.74c0,40.18,29.67,70.61,68.6,70.61s70.37-27.39,70.25-70c-.07-41.34-31.45-68-70.35-68-36.26,0-68.53,27.73-68.5,67.39l-51.15-.05c-.17-83,111.33-139,184.65-83,3.35,2.52,6.52.51,6.61-5.47l-.06-82.52c.09-11.42,11.48-11.39,11.48-11.39h27s11.36,0,11.36,11.35V370c0,11.4-11.33,11.39-11.33,11.39h-27C2057,381.37,2057,370,2057,369.13c0-6-3.36-8.06-6.64-5.49-74.47,58.85-184.42,8.84-184.65-83.95"/>
          </g>
          <g id="g41999">
            <path id="path42001" class="cls-3" d="M819.44,253.51l0-37.68c.62,0-11.37,0-11.37-11.37-.05-13.92,0-58.24,0-58.24s0-11.35,11.37-11.35H920.29s44.36.07,44.38,40.48-44.38,40.48-44.38,40.45l-100.83,0v37.65h84.48c14.95,0,27.69,3.35,33.48,11.38,24.61,34.12,16.46,69,28.27,105,2.09,6.35,8,11.42,18.77,11.42l33-.05c3.08,0,5.41-4.18,4.48-6.15-13.61-28.81-14.66-58.79-23.64-93.17-5-19.07-5.12-28.12-19.23-39.18-.77-.62.5-2.79,2.17-3.94,20.56-14.41,35.24-37.84,35.24-63.45,0-52.36-42.67-78.14-80-78.12l-165.31,0s-11.37,0-11.37,11.32l0,261.28c.07,11.5,11.48,11.4,11.48,11.4l25.51,0s11.38,0,11.38-11.37c0-18.55-.08-78.66,0-105,0-11.37,11.38-11.34,11.38-11.34"/>
          </g>
          <g id="g42003">
            <path id="path42005" class="cls-3" d="M168.89,97.74V380.57h22.62V118.65H631.05c39,0,69.57,32.67,69.57,70s-28.84,69.18-69.57,69.18H316v69H722.13V305.88H338.59V278.74h293c53.75,0,90.3-41.87,90.3-90.29S685.5,97.94,631.41,97.94s-462.52-.2-462.52-.2"/>
          </g>
          <g id="g42007">
            <path id="path42009" class="cls-3" d="M435.5,152.74v20.93H247v100s15.27-71.72,87.39-71.72h295V173.67H435.5V152.74H652v70.14H336.89c-37.88,0-68.31,29.13-68.31,68.73s28.73,68,68.87,68H722.13v20.92H336.89c-50.91,0-81.17-32.95-89.93-71.43v71.43H224.32V152.74"/>
          </g>
        </g>
      </g>
    </g>
  </g>
</svg>
