<svg xmlns="http://www.w3.org/2000/svg" viewBox="0 0 512 512">
  <defs>
    <style>
      .cls-1 {
        fill: #9980ff;
      }
    </style>
  </defs>
  <g id="Bass">
    <path class="cls-1" d="M415,91.7c-1.73-1.63-3.73-7.7-3.73-7.7A55.71,55.71,0,0,1,404,81.8c-1.57-.83-4.5-4.24-4.5-4.24l-5.83,7.88a13.42,13.42,0,0,0-2.37-2.91c-2.9-2.73-6.29-3.82-7.58-2.44s0,4.69,2.89,7.42A13.39,13.39,0,0,0,390,89.89c-1.47,1.6-3.74,4.07-6.3,6.79a12.91,12.91,0,0,0-2.62-3.34c-2.89-2.73-6.29-3.82-7.58-2.44s0,4.69,2.9,7.42a13.31,13.31,0,0,0,3.46,2.39c-4.77,4.93-9.72,9.8-12.21,11.47-5.67,3.81,1,6-4.76,13.95S242.54,248.86,242.54,248.86c-19.11-8.58-55.24-28-64.8,30-4.5,11.44-61.47-2.45-83.84,41.31s33.26,138,108.1,101.75c25.92-15.33,26.77-76.21,31.4-83.35,1.57-2.41,6.46-6,12.25-9.59A17,17,0,0,0,249,303c-4.06-4.42-6.3-10.38-3.8-18.3,18.23-20.48,129.18-144.81,131.85-145.43s12.29-3.06,12.29-3.06,5.68-6.89,12.6-14.73a13,13,0,0,0,2.69,3.49c2.89,2.72,6.29,3.81,7.58,2.44s0-4.7-2.9-7.42a12.61,12.61,0,0,0-3.78-2.54c2.16-2.39,4.36-4.78,6.48-7a12.8,12.8,0,0,0,2.79,3.71c2.9,2.72,6.29,3.81,7.58,2.44s0-4.7-2.89-7.42a12.61,12.61,0,0,0-3.77-2.52c4.26-4.22,7.87-7.28,9.66-7.63C431.84,97.72,416.77,93.33,415,91.7ZM165.57,376.18a2.1,2.1,0,0,1-3,.09l-25-23.48a2.1,2.1,0,0,1-.09-3l7.74-8.22a2.1,2.1,0,0,1,3-.09L173.21,365a2.1,2.1,0,0,1,.09,3Zm16.73,22.21a6.28,6.28,0,1,1-.27-8.88A6.29,6.29,0,0,1,182.3,398.39Zm17.39-12.65a6.28,6.28,0,1,1-.27-8.88A6.28,6.28,0,0,1,199.69,385.74Zm12.42-56.59-1.56,1.66a2.1,2.1,0,0,1-3,.09l-25-23.48a2.1,2.1,0,0,1-.09-3l1.57-1.66a2.1,2.1,0,0,1,3-.09L212,326.19A2.1,2.1,0,0,1,212.11,329.15Z"/>
  </g>
</svg>
