<svg xmlns="http://www.w3.org/2000/svg" viewBox="0 0 512 512">
  <defs>
    <style>
      .cls-1 {
        fill: #9980ff;
      }
    </style>
  </defs>
  <g id="Drums">
    <path class="cls-1" d="M464.4,134.29H349.81a2,2,0,0,0-.86,3.77c8.75,4.2,25.73,10.56,50.09,11.75a8.56,8.56,0,0,0-.3,2.22v78l16.74-3.37V152a8.56,8.56,0,0,0-.31-2.22c24.36-1.19,41.34-7.55,50.09-11.75A2,2,0,0,0,464.4,134.29Z"/>
    <path class="cls-1" d="M349.86,121.74H464.35a2,2,0,0,0,.76-3.82c-9.86-3.86-28.29-9.29-54.35-9.77V106a6,6,0,0,0,0-8v-7a2.74,2.74,0,0,0-5.47,0v7a6,6,0,0,0,0,8v2.1c-27,.24-46.1,5.84-56.19,9.79A2,2,0,0,0,349.86,121.74Z"/>
    <path class="cls-1" d="M193.92,134.29H79.34a2,2,0,0,0-.86,3.77c8.75,4.2,25.73,10.56,50.09,11.75a8.56,8.56,0,0,0-.3,2.22v74c.85-.08,1.72-.12,2.59-.12a28.25,28.25,0,0,1,5.5.54l8.64,1.74V152a8.56,8.56,0,0,0-.31-2.22c24.36-1.19,41.34-7.55,50.09-11.75A2,2,0,0,0,193.92,134.29Z"/>
    <path class="cls-1" d="M79.38,121.74h114.5a2,2,0,0,0,.76-3.82c-9.87-3.86-28.29-9.29-54.36-9.77,0,0,0,0,0,0V106a6,6,0,0,0,0-8v-7a2.74,2.74,0,0,0-5.47,0v7a6,6,0,0,0,0,8v2.1c-27,.24-46.1,5.84-56.2,9.79A2,2,0,0,0,79.38,121.74Z"/>
    <path class="cls-1" d="M458.77,397l-43.29-18.8V306.75l-16.74,3.36V378l-48.61,18.9a8.5,8.5,0,0,0,3.08,16.42,8.32,8.32,0,0,0,3.08-.58L406.93,393,452,412.59A8.5,8.5,0,1,0,458.77,397Z"/>
    <path class="cls-1" d="M188.3,397,145,378.2V353.53l-16.73-3.36V378l-48.61,18.9a8.5,8.5,0,0,0,3.08,16.42,8.36,8.36,0,0,0,3.08-.58L136.45,393l45.08,19.57A8.5,8.5,0,0,0,188.3,397Z"/>
    <path class="cls-1" d="M398.74,293.8l16.74-3.36L429,287.72a12,12,0,0,0,9.4-14.13L434,251.5a12,12,0,0,0-11.78-9.63,11.84,11.84,0,0,0-2.35.23l-4.35.87-16.74,3.37-54.8,11a94.22,94.22,0,0,1,16.6,44.12Z"/>
    <path class="cls-1" d="M145,244.47l-11.79-2.37a11.9,11.9,0,0,0-4.94.06,12,12,0,0,0-9.19,9.34L105.9,317.11a12,12,0,0,0,9.4,14.13l13,2.61L145,337.21l32,6.44a94.68,94.68,0,0,1,14.25-89.88Z"/>
    <path class="cls-1" d="M269.09,293.38l0,.12q.12.42.21.84L296,240.85a76.95,76.95,0,0,0-44.91-4.47l17.94,56.87Z"/>
    <path class="cls-1" d="M324.32,261.42c-.61-.71-1.23-1.4-1.87-2.08l-2.74,5a12.18,12.18,0,0,0-3.1,5.7l-6.74,12.41-6,11L282.53,332.8l-.06.12-.07.11a14.35,14.35,0,0,1-12.52,7.34,14.77,14.77,0,0,1-12.34-6.74,14.45,14.45,0,0,1-.87-13.9l.08-.16.08-.16,4.29-8.61a14.59,14.59,0,0,1-6,1.29,14.24,14.24,0,0,1-9.08-3.26,14.72,14.72,0,0,1-4.36-6h0c-.11-.24-.2-.5-.3-.76l-.45-1.28-.93-2.6-.79-2.23-4.41-12.48-1.7-4.79-6.28-17.72-3.11-8.79-1.24-3.51c-1.18.81-2.35,1.67-3.48,2.56a77.38,77.38,0,0,0-7.46,6.67A76.66,76.66,0,0,0,198.64,348a73.94,73.94,0,0,0,6,9.35,75,75,0,0,0,7.8,9,76.76,76.76,0,0,0,130.08-44.9,75.38,75.38,0,0,0,.6-8.28c0-.49,0-1,0-1.47q0-3.36-.29-6.64A76.4,76.4,0,0,0,324.32,261.42Z"/>
    <path class="cls-1" d="M269.88,329.37a3.37,3.37,0,0,0,3-1.82l27.71-51,13.55-24.93,2.31-4.25,2.06-3.79,4.33-8,27.25-50.16a6.31,6.31,0,0,0-5.67-9.34,6.24,6.24,0,0,0-5.53,3.5l-25,50.09-4,8-4,8.09-39.16,78.48A3.49,3.49,0,0,0,269.88,329.37Z"/>
    <path class="cls-1" d="M226.09,225.82l3,8.5,3,8.57,1.13,3.18,3.89,11,7.1,20,5.21,14.69,2.47,7a3.35,3.35,0,0,0,3.19,2.31,3.48,3.48,0,0,0,3.43-4.53L252.4,277l-7.47-23.68-4.42-14-2.71-8.61-2.71-8.57-25.17-79.81a6.18,6.18,0,0,0-5.9-4.4,6.28,6.28,0,0,0-6.08,8.41Z"/>
  </g>
</svg>
