<svg xmlns="http://www.w3.org/2000/svg" viewBox="0 0 512 512">
  <defs>
    <style>
      .cls-1 {
        fill: #9980ff;
      }
    </style>
  </defs>
  <g id="Geige">
    <path class="cls-1" d="M392.91,136a23.89,23.89,0,1,0-21.85-21.84l-14.9,14.14-8-8h0a7.81,7.81,0,1,0-6.36,6.37h0l7.87,7.87L338.47,145l-7.58-7.59h0a7.81,7.81,0,1,0-6.36,6.37l7.41,7.42-68.39,64.9A57.16,57.16,0,0,0,229.47,204L206.1,124a9.84,9.84,0,0,0-18.89,5.52L210,207.36a48.54,48.54,0,0,0-16,10.15L191.37,220c10.71,17.54,9.37,39.71-4.62,53.7-14.46,14.46-37.67,15.41-55.46,3.5l-21,20c-22.7,21.62-22.81,58.18.22,81.2l16.21,16.21c23,23,59.58,22.92,81.2.22l20-21c-11.91-17.79-10.95-41,3.5-55.46a39.32,39.32,0,0,1,9-6.74l31.45,107.59a9.84,9.84,0,0,0,18.89-5.53l-31.28-107a47.41,47.41,0,0,1,25.62,7.07l2.45-2.56c17.22-18.08,17.85-46.37,3.05-67.36l65.18-68.7,7.63,7.63a7.83,7.83,0,1,0,6.36-6.36l-7.79-7.8,10.58-11.15,8.08,8.08h0a7.81,7.81,0,1,0,6.37-6.37l-8.26-8.25ZM271,222.9l66.32-66.33,17.23-17.23,3.18-3.18,3.19-3.19,11.84-11.83a21.69,21.69,0,0,0,1.13,2.39,20.81,20.81,0,0,0,1.35,2.19l-10.79,10.79-17.23,17.23-6.36,6.37-66.33,66.32-29.75,29.75-.8-2.74-.8-2.73Zm14.6,195.83a4.84,4.84,0,0,1-8.89-1L245,309.46l-7.75-26.52-.8-2.74-.8-2.74L232.9,268l-.8-2.74-.8-2.73-16.59-56.76L192,128.13a4.83,4.83,0,0,1,4.64-6.2,4.84,4.84,0,0,1,2.33.6,4.79,4.79,0,0,1,2.32,2.88l23,78.7,12.91,44.18,1.89,6.45.8,2.74.8,2.73.35,1.22,2.41,8.23.8,2.73.8,2.74,9.32,31.9,31.58,108A4.78,4.78,0,0,1,285.56,418.73ZM181.68,338.52a8,8,0,0,1-.88.77l9,9a5.64,5.64,0,0,1-4,9.63,5.59,5.59,0,0,1-4-1.64l-31.14-31.14a5.66,5.66,0,0,1,0-8,5.66,5.66,0,0,1,8,0l9,9a8.88,8.88,0,0,1,.77-.87l58.77-58.77.8,2.73.8,2.74L172,328.88a4.3,4.3,0,0,0-.71.94l5.87,5.87a3.94,3.94,0,0,0,.94-.71l53.49-53.49.8,2.74.8,2.74ZM370.87,149.33l-3.18,3.18-14.05,14.05-3.18,3.19-66.33,66.32-33.38,33.38-1.65,1.65-.8-2.74,0,0-.06,0-.78-2.67,33.09-33.09,66.33-66.32L350.1,163l3.18-3.18h0l17.24-17.24,10.79-10.79a19.7,19.7,0,0,0,2.18,1.35,23.92,23.92,0,0,0,2.4,1.14l-11.84,11.84Z"/>
  </g>
</svg>
