<svg xmlns="http://www.w3.org/2000/svg" viewBox="0 0 512 512">
  <defs>
    <style>
      .cls-1 {
        fill: #9980ff;
      }
    </style>
  </defs>
  <g id="Gitarre">
    <path class="cls-1" d="M415,91.7c-1.73-1.63-3.73-7.7-3.73-7.7A55.71,55.71,0,0,1,404,81.8c-1.57-.82-4.5-4.24-4.5-4.24l-5.83,7.88a13.42,13.42,0,0,0-2.37-2.91c-2.9-2.72-6.29-3.82-7.58-2.44s0,4.7,2.89,7.42A13.39,13.39,0,0,0,390,89.89c-1.47,1.6-3.73,4.06-6.3,6.79a12.91,12.91,0,0,0-2.62-3.34c-2.89-2.72-6.29-3.82-7.58-2.44s0,4.7,2.9,7.42a13.31,13.31,0,0,0,3.46,2.39c-1.73,1.79-3.49,3.58-5.14,5.2a13.49,13.49,0,0,0-2.51-3.15c-2.89-2.72-6.29-3.81-7.58-2.44s0,4.7,2.9,7.42a13.35,13.35,0,0,0,3,2.16,30.51,30.51,0,0,1-2.85,2.29c-5.67,3.8,1,6-4.76,13.94S242.54,248.86,242.54,248.86c-19.11-8.57-55.24-27.94-64.8,30-4.5,11.45-61.47-2.45-83.84,41.32S127.16,458.09,202,421.89c25.92-15.32,26.77-76.21,31.4-83.35s38.39-24.18,38.39-24.18-33.92-6.31-26.55-29.7c18.23-20.47,129.18-144.81,131.85-145.43s12.29-3.06,12.29-3.06,1.54-1.87,4-4.78a13.29,13.29,0,0,0,2.41,3c2.89,2.73,6.28,3.82,7.58,2.44s0-4.69-2.9-7.42a13,13,0,0,0-3.36-2.34c1.49-1.74,3.14-3.64,4.85-5.59a12.81,12.81,0,0,0,2.7,3.49c2.89,2.72,6.29,3.82,7.58,2.44s0-4.7-2.9-7.42a12.54,12.54,0,0,0-3.79-2.53c2.16-2.39,4.36-4.78,6.49-7a12.77,12.77,0,0,0,2.79,3.7c2.9,2.72,6.29,3.82,7.58,2.44s0-4.7-2.89-7.42a12.61,12.61,0,0,0-3.77-2.52c4.26-4.22,7.87-7.27,9.66-7.63C431.84,97.72,416.77,93.33,415,91.7ZM169.24,317.78l1.56-1.66a2.1,2.1,0,0,1,3-.09l25,23.48a2.1,2.1,0,0,1,.09,3l-1.57,1.66a2.1,2.1,0,0,1-3,.09l-24.94-23.48A2.1,2.1,0,0,1,169.24,317.78Zm-9.1,82.49a6.28,6.28,0,1,1-.27-8.88A6.26,6.26,0,0,1,160.14,400.27Zm5.43-24.09a2.1,2.1,0,0,1-3,.09l-25-23.48a2.1,2.1,0,0,1-.09-3l7.74-8.22a2.1,2.1,0,0,1,3-.09L173.21,365a2.1,2.1,0,0,1,.09,3Zm16.73,22.21a6.28,6.28,0,1,1-.27-8.88A6.29,6.29,0,0,1,182.3,398.39Zm17.39-12.65a6.28,6.28,0,1,1-.27-8.87A6.28,6.28,0,0,1,199.69,385.74Zm12.42-56.59-1.56,1.66a2.1,2.1,0,0,1-3,.09l-25-23.48a2.1,2.1,0,0,1-.09-3l1.57-1.66a2.1,2.1,0,0,1,3-.09L212,326.19A2.1,2.1,0,0,1,212.11,329.15Zm12.62-12.62-1.56,1.66a2.1,2.1,0,0,1-3,.09l-25-23.48a2.1,2.1,0,0,1-.09-3l1.57-1.66a2.1,2.1,0,0,1,3-.09l24.94,23.48A2.1,2.1,0,0,1,224.73,316.53Z"/>
  </g>
</svg>
