<svg xmlns="http://www.w3.org/2000/svg" viewBox="0 0 512 512">
  <defs>
    <style>
      .cls-1 {
        fill: #9980ff;
      }
    </style>
  </defs>
  <g id="Mic">
    <path class="cls-1" d="M266.48,181.73c-2.8,3.09-5.55,6.29-8.22,9.59L89.31,399.52c-4.64,5.72-5.25,10.92-4.73,12.3L109,436.27c1.4.51,6.6-.09,12.32-4.73l208.19-169c3.3-2.69,6.52-5.44,9.61-8.23a90.6,90.6,0,0,1-72.65-72.63Zm3.59,86L247.85,290a8.47,8.47,0,0,1-12,0l-5-5a8.49,8.49,0,0,1,0-12l22.22-22.22a8.52,8.52,0,0,1,12,0l5,5A8.49,8.49,0,0,1,270.07,267.78Z"/>
    <path class="cls-1" d="M385.2,210.18q-4-3.13-8-6.43c-8.79-7.22-17.42-15.06-25.7-23.35a350.45,350.45,0,0,1-32.3-37q-3.2-4.24-6.17-8.49t-5.53-8.22c-2-3-3.82-6-5.6-9a70.88,70.88,0,0,0-11.49,17.79,70.13,70.13,0,0,0-4.94,15.31,71.69,71.69,0,0,0,71.08,86.07,72,72,0,0,0,28.89-6.37,70.87,70.87,0,0,0,15.06-9.23q-3.66-2.49-7.33-5.14Q389.16,213.22,385.2,210.18Z"/>
    <path class="cls-1" d="M406.47,114.35a72.13,72.13,0,0,0-12.75-10.18c-1-.64-2-1.25-3.06-1.82s-2.07-1.13-3.13-1.65-2.25-1.09-3.39-1.57l-1.16-.5-1.15-.47c-.36-.13-.71-.28-1.06-.4l-1.29-.47c-1.1-.4-2.2-.75-3.31-1.08s-2.22-.64-3.34-.91a71.32,71.32,0,0,0-18.38-2.07l-.84,0-.91,0c-.42,0-.84,0-1.25.06-1.71.1-3.41.27-5.12.5L345.2,94c-.49.07-1,.14-1.45.23-.31.06-.61.1-.91.17l-1.1.21c-.34.06-.67.13-1,.21-.49.09-1,.2-1.48.33-1,.24-2,.49-3,.78l-1.42.41-1.37.43c-.51.18-1,.34-1.54.53s-.9.32-1.35.5-1,.38-1.52.59c-.95.39-1.89.79-2.83,1.21-.48.21-.94.43-1.4.66a71,71,0,0,0-8.33,4.71,254.07,254.07,0,0,0,14.67,22.63,327,327,0,0,0,33.75,39.34,335.93,335.93,0,0,0,30.44,27c6.12,4.81,12.31,9.27,18.47,13.34l.93-1.29.74-1.09c.55-.81,1.06-1.62,1.56-2.43.25-.41.49-.82.73-1.24.49-.82.95-1.66,1.4-2.49.22-.42.44-.84.65-1.27s.43-.85.64-1.27c.4-.85.8-1.71,1.17-2.58s.74-1.74,1.07-2.6c.16-.39.3-.77.44-1.17,0-.08.07-.15.1-.24l.43-1.23c.15-.44.3-.9.44-1.34s.29-.89.42-1.34c.55-1.83,1-3.7,1.43-5.57.09-.4.16-.8.24-1.19s.18-.92.25-1.37.17-.92.23-1.37c.15-.91.27-1.84.38-2.75.05-.42.1-.83.14-1.24s.06-.65.09-1,.05-.77.09-1.16c0-.57.06-1.14.08-1.71s.05-1.06.06-1.59,0-1.06,0-1.6A71.67,71.67,0,0,0,406.47,114.35Z"/>
  </g>
</svg>
