<svg id="Ebene_1" data-name="Ebene 1" xmlns="http://www.w3.org/2000/svg" viewBox="0 0 512 512">
  <defs>
    <style>
      .cls-1 {
        fill: #9980ff;
      }
    </style>
  </defs>
  <path class="cls-1" d="M176.43,353.67v37.07A15.29,15.29,0,0,1,161.14,406H124.07a15.29,15.29,0,0,1-15.28-15.29V353.67a15.28,15.28,0,0,1,15.28-15.28h37.07A15.28,15.28,0,0,1,176.43,353.67Z"/>
  <path class="cls-1" d="M161.14,107.8H124.07a15.28,15.28,0,0,0-15.28,15.28v37.07a15.28,15.28,0,0,0,15.28,15.29h37.07a15.28,15.28,0,0,0,15.29-15.29V123.08A15.28,15.28,0,0,0,161.14,107.8Zm0,115.29H124.07a15.29,15.29,0,0,0-15.28,15.29v37.07a15.29,15.29,0,0,0,15.28,15.29h37.07a15.29,15.29,0,0,0,15.29-15.29V238.38A15.29,15.29,0,0,0,161.14,223.09Zm0-115.29H124.07a15.28,15.28,0,0,0-15.28,15.28v37.07a15.28,15.28,0,0,0,15.28,15.29h37.07a15.28,15.28,0,0,0,15.29-15.29V123.08A15.28,15.28,0,0,0,161.14,107.8Zm0,115.29H124.07a15.29,15.29,0,0,0-15.28,15.29v37.07a15.29,15.29,0,0,0,15.28,15.29h37.07a15.29,15.29,0,0,0,15.29-15.29V238.38A15.29,15.29,0,0,0,161.14,223.09Zm0-115.29H124.07a15.28,15.28,0,0,0-15.28,15.28v37.07a15.28,15.28,0,0,0,15.28,15.29h37.07a15.28,15.28,0,0,0,15.29-15.29V123.08A15.28,15.28,0,0,0,161.14,107.8Zm0,115.29H124.07a15.29,15.29,0,0,0-15.28,15.29v37.07a15.29,15.29,0,0,0,15.28,15.29h37.07a15.29,15.29,0,0,0,15.29-15.29V238.38A15.29,15.29,0,0,0,161.14,223.09ZM277.31,107.8H240.24A15.28,15.28,0,0,0,225,123.08v37.07a15.28,15.28,0,0,0,15.29,15.29h37.07a15.28,15.28,0,0,0,15.28-15.29V123.08A15.28,15.28,0,0,0,277.31,107.8Zm0,115.29H240.24A15.29,15.29,0,0,0,225,238.38v37.07a15.29,15.29,0,0,0,15.29,15.29h37.07a15.29,15.29,0,0,0,15.28-15.29V238.38A15.29,15.29,0,0,0,277.31,223.09Zm0-115.29H240.24A15.28,15.28,0,0,0,225,123.08v37.07a15.28,15.28,0,0,0,15.29,15.29h37.07a15.28,15.28,0,0,0,15.28-15.29V123.08A15.28,15.28,0,0,0,277.31,107.8Zm0,115.29H240.24A15.29,15.29,0,0,0,225,238.38v37.07a15.29,15.29,0,0,0,15.29,15.29h37.07a15.29,15.29,0,0,0,15.28-15.29V238.38A15.29,15.29,0,0,0,277.31,223.09ZM161.14,107.8H124.07a15.28,15.28,0,0,0-15.28,15.28v37.07a15.28,15.28,0,0,0,15.28,15.29h37.07a15.28,15.28,0,0,0,15.29-15.29V123.08A15.28,15.28,0,0,0,161.14,107.8Zm0,115.29H124.07a15.29,15.29,0,0,0-15.28,15.29v37.07a15.29,15.29,0,0,0,15.28,15.29h37.07a15.29,15.29,0,0,0,15.29-15.29V238.38A15.29,15.29,0,0,0,161.14,223.09Zm0-115.29H124.07a15.28,15.28,0,0,0-15.28,15.28v37.07a15.28,15.28,0,0,0,15.28,15.29h37.07a15.28,15.28,0,0,0,15.29-15.29V123.08A15.28,15.28,0,0,0,161.14,107.8Zm0,115.29H124.07a15.29,15.29,0,0,0-15.28,15.29v37.07a15.29,15.29,0,0,0,15.28,15.29h37.07a15.29,15.29,0,0,0,15.29-15.29V238.38A15.29,15.29,0,0,0,161.14,223.09ZM277.31,107.8H240.24A15.28,15.28,0,0,0,225,123.08v37.07a15.28,15.28,0,0,0,15.29,15.29h37.07a15.28,15.28,0,0,0,15.28-15.29V123.08A15.28,15.28,0,0,0,277.31,107.8Zm0,115.29H240.24A15.29,15.29,0,0,0,225,238.38v37.07a15.29,15.29,0,0,0,15.29,15.29h37.07a15.29,15.29,0,0,0,15.28-15.29V238.38A15.29,15.29,0,0,0,277.31,223.09Zm0,115.3H240.24A15.28,15.28,0,0,0,225,353.67v37.07A15.29,15.29,0,0,0,240.24,406h37.07a15.29,15.29,0,0,0,15.28-15.29V353.67A15.28,15.28,0,0,0,277.31,338.39Zm116.16,0H356.4a15.28,15.28,0,0,0-15.29,15.28v37.07A15.29,15.29,0,0,0,356.4,406h37.07a15.29,15.29,0,0,0,15.28-15.29V353.67A15.28,15.28,0,0,0,393.47,338.39Zm0,0H356.4a15.28,15.28,0,0,0-15.29,15.28v37.07A15.29,15.29,0,0,0,356.4,406h37.07a15.29,15.29,0,0,0,15.28-15.29V353.67A15.28,15.28,0,0,0,393.47,338.39ZM277.31,107.8H240.24A15.28,15.28,0,0,0,225,123.08v37.07a15.28,15.28,0,0,0,15.29,15.29h37.07a15.28,15.28,0,0,0,15.28-15.29V123.08A15.28,15.28,0,0,0,277.31,107.8Zm0,115.29H240.24A15.29,15.29,0,0,0,225,238.38v37.07a15.29,15.29,0,0,0,15.29,15.29h37.07a15.29,15.29,0,0,0,15.28-15.29V238.38A15.29,15.29,0,0,0,277.31,223.09Zm0,115.3H240.24A15.28,15.28,0,0,0,225,353.67v37.07A15.29,15.29,0,0,0,240.24,406h37.07a15.29,15.29,0,0,0,15.28-15.29V353.67A15.28,15.28,0,0,0,277.31,338.39ZM161.14,107.8H124.07a15.28,15.28,0,0,0-15.28,15.28v37.07a15.28,15.28,0,0,0,15.28,15.29h37.07a15.28,15.28,0,0,0,15.29-15.29V123.08A15.28,15.28,0,0,0,161.14,107.8Zm0,115.29H124.07a15.29,15.29,0,0,0-15.28,15.29v37.07a15.29,15.29,0,0,0,15.28,15.29h37.07a15.29,15.29,0,0,0,15.29-15.29V238.38A15.29,15.29,0,0,0,161.14,223.09Zm0-115.29H124.07a15.28,15.28,0,0,0-15.28,15.28v37.07a15.28,15.28,0,0,0,15.28,15.29h37.07a15.28,15.28,0,0,0,15.29-15.29V123.08A15.28,15.28,0,0,0,161.14,107.8Zm0,115.29H124.07a15.29,15.29,0,0,0-15.28,15.29v37.07a15.29,15.29,0,0,0,15.28,15.29h37.07a15.29,15.29,0,0,0,15.29-15.29V238.38A15.29,15.29,0,0,0,161.14,223.09ZM277.31,107.8H240.24A15.28,15.28,0,0,0,225,123.08v37.07a15.28,15.28,0,0,0,15.29,15.29h37.07a15.28,15.28,0,0,0,15.28-15.29V123.08A15.28,15.28,0,0,0,277.31,107.8Zm0,115.29H240.24A15.29,15.29,0,0,0,225,238.38v37.07a15.29,15.29,0,0,0,15.29,15.29h37.07a15.29,15.29,0,0,0,15.28-15.29V238.38A15.29,15.29,0,0,0,277.31,223.09Zm0,115.3H240.24A15.28,15.28,0,0,0,225,353.67v37.07A15.29,15.29,0,0,0,240.24,406h37.07a15.29,15.29,0,0,0,15.28-15.29V353.67A15.28,15.28,0,0,0,277.31,338.39Zm116.16-115.3H356.4a15.29,15.29,0,0,0-15.29,15.29v37.07a15.29,15.29,0,0,0,15.29,15.29h37.07a15.29,15.29,0,0,0,15.28-15.29V238.38A15.29,15.29,0,0,0,393.47,223.09Zm0,115.3H356.4a15.28,15.28,0,0,0-15.29,15.28v37.07A15.29,15.29,0,0,0,356.4,406h37.07a15.29,15.29,0,0,0,15.28-15.29V353.67A15.28,15.28,0,0,0,393.47,338.39Zm0-115.3H356.4a15.29,15.29,0,0,0-15.29,15.29v37.07a15.29,15.29,0,0,0,15.29,15.29h37.07a15.29,15.29,0,0,0,15.28-15.29V238.38A15.29,15.29,0,0,0,393.47,223.09Zm0,115.3H356.4a15.28,15.28,0,0,0-15.29,15.28v37.07A15.29,15.29,0,0,0,356.4,406h37.07a15.29,15.29,0,0,0,15.28-15.29V353.67A15.28,15.28,0,0,0,393.47,338.39ZM277.31,107.8H240.24A15.28,15.28,0,0,0,225,123.08v37.07a15.28,15.28,0,0,0,15.29,15.29h37.07a15.28,15.28,0,0,0,15.28-15.29V123.08A15.28,15.28,0,0,0,277.31,107.8Zm0,115.29H240.24A15.29,15.29,0,0,0,225,238.38v37.07a15.29,15.29,0,0,0,15.29,15.29h37.07a15.29,15.29,0,0,0,15.28-15.29V238.38A15.29,15.29,0,0,0,277.31,223.09Zm0,115.3H240.24A15.28,15.28,0,0,0,225,353.67v37.07A15.29,15.29,0,0,0,240.24,406h37.07a15.29,15.29,0,0,0,15.28-15.29V353.67A15.28,15.28,0,0,0,277.31,338.39ZM161.14,107.8H124.07a15.28,15.28,0,0,0-15.28,15.28v37.07a15.28,15.28,0,0,0,15.28,15.29h37.07a15.28,15.28,0,0,0,15.29-15.29V123.08A15.28,15.28,0,0,0,161.14,107.8Zm0,115.29H124.07a15.29,15.29,0,0,0-15.28,15.29v37.07a15.29,15.29,0,0,0,15.28,15.29h37.07a15.29,15.29,0,0,0,15.29-15.29V238.38A15.29,15.29,0,0,0,161.14,223.09ZM409,71.8H107.14a33.86,33.86,0,0,0-33.86,33.86v303a33.86,33.86,0,0,0,33.86,33.86H409a33.86,33.86,0,0,0,33.86-33.86v-303A33.86,33.86,0,0,0,409,71.8ZM189.32,390.74a28.21,28.21,0,0,1-28.18,28.18H124.07a28.22,28.22,0,0,1-28.18-28.18V353.67a28.22,28.22,0,0,1,28.18-28.18h37.07a28.21,28.21,0,0,1,28.18,28.18Zm0-115.29a28.21,28.21,0,0,1-28.18,28.18H124.07a28.22,28.22,0,0,1-28.18-28.18V238.38a28.22,28.22,0,0,1,28.18-28.18h37.07a28.21,28.21,0,0,1,28.18,28.18Zm0-115.3a28.21,28.21,0,0,1-28.18,28.18H124.07a28.22,28.22,0,0,1-28.18-28.18V123.08a28.21,28.21,0,0,1,28.18-28.17h37.07a28.21,28.21,0,0,1,28.18,28.17ZM305.49,390.74a28.22,28.22,0,0,1-28.18,28.18H240.24a28.21,28.21,0,0,1-28.18-28.18V353.67a28.21,28.21,0,0,1,28.18-28.18h37.07a28.22,28.22,0,0,1,28.18,28.18Zm0-115.29a28.22,28.22,0,0,1-28.18,28.18H240.24a28.21,28.21,0,0,1-28.18-28.18V238.38a28.21,28.21,0,0,1,28.18-28.18h37.07a28.22,28.22,0,0,1,28.18,28.18Zm0-115.3a28.22,28.22,0,0,1-28.18,28.18H240.24a28.21,28.21,0,0,1-28.18-28.18V123.08a28.21,28.21,0,0,1,28.18-28.17h37.07a28.21,28.21,0,0,1,28.18,28.17ZM421.65,390.74a28.21,28.21,0,0,1-28.18,28.18H356.4a28.21,28.21,0,0,1-28.18-28.18V353.67a28.21,28.21,0,0,1,28.18-28.18h37.07a28.21,28.21,0,0,1,28.18,28.18Zm0-115.29a28.21,28.21,0,0,1-28.18,28.18H356.4a28.21,28.21,0,0,1-28.18-28.18V238.38A28.21,28.21,0,0,1,356.4,210.2h37.07a28.21,28.21,0,0,1,28.18,28.18Zm0-115.3a28.21,28.21,0,0,1-28.18,28.18H356.4a28.21,28.21,0,0,1-28.18-28.18V123.08A28.21,28.21,0,0,1,356.4,94.91h37.07a28.21,28.21,0,0,1,28.18,28.17ZM393.47,338.39H356.4a15.28,15.28,0,0,0-15.29,15.28v37.07A15.29,15.29,0,0,0,356.4,406h37.07a15.29,15.29,0,0,0,15.28-15.29V353.67A15.28,15.28,0,0,0,393.47,338.39Zm0-115.3H356.4a15.29,15.29,0,0,0-15.29,15.29v37.07a15.29,15.29,0,0,0,15.29,15.29h37.07a15.29,15.29,0,0,0,15.28-15.29V238.38A15.29,15.29,0,0,0,393.47,223.09Zm0-115.29H356.4a15.28,15.28,0,0,0-15.29,15.28v37.07a15.28,15.28,0,0,0,15.29,15.29h37.07a15.28,15.28,0,0,0,15.28-15.29V123.08A15.28,15.28,0,0,0,393.47,107.8ZM277.31,338.39H240.24A15.28,15.28,0,0,0,225,353.67v37.07A15.29,15.29,0,0,0,240.24,406h37.07a15.29,15.29,0,0,0,15.28-15.29V353.67A15.28,15.28,0,0,0,277.31,338.39Zm0-115.3H240.24A15.29,15.29,0,0,0,225,238.38v37.07a15.29,15.29,0,0,0,15.29,15.29h37.07a15.29,15.29,0,0,0,15.28-15.29V238.38A15.29,15.29,0,0,0,277.31,223.09Zm0-115.29H240.24A15.28,15.28,0,0,0,225,123.08v37.07a15.28,15.28,0,0,0,15.29,15.29h37.07a15.28,15.28,0,0,0,15.28-15.29V123.08A15.28,15.28,0,0,0,277.31,107.8ZM161.14,223.09H124.07a15.29,15.29,0,0,0-15.28,15.29v37.07a15.29,15.29,0,0,0,15.28,15.29h37.07a15.29,15.29,0,0,0,15.29-15.29V238.38A15.29,15.29,0,0,0,161.14,223.09Zm0-115.29H124.07a15.28,15.28,0,0,0-15.28,15.28v37.07a15.28,15.28,0,0,0,15.28,15.29h37.07a15.28,15.28,0,0,0,15.29-15.29V123.08A15.28,15.28,0,0,0,161.14,107.8Zm0,115.29H124.07a15.29,15.29,0,0,0-15.28,15.29v37.07a15.29,15.29,0,0,0,15.28,15.29h37.07a15.29,15.29,0,0,0,15.29-15.29V238.38A15.29,15.29,0,0,0,161.14,223.09Zm0-115.29H124.07a15.28,15.28,0,0,0-15.28,15.28v37.07a15.28,15.28,0,0,0,15.28,15.29h37.07a15.28,15.28,0,0,0,15.29-15.29V123.08A15.28,15.28,0,0,0,161.14,107.8ZM277.31,338.39H240.24A15.28,15.28,0,0,0,225,353.67v37.07A15.29,15.29,0,0,0,240.24,406h37.07a15.29,15.29,0,0,0,15.28-15.29V353.67A15.28,15.28,0,0,0,277.31,338.39Zm0-115.3H240.24A15.29,15.29,0,0,0,225,238.38v37.07a15.29,15.29,0,0,0,15.29,15.29h37.07a15.29,15.29,0,0,0,15.28-15.29V238.38A15.29,15.29,0,0,0,277.31,223.09Zm0-115.29H240.24A15.28,15.28,0,0,0,225,123.08v37.07a15.28,15.28,0,0,0,15.29,15.29h37.07a15.28,15.28,0,0,0,15.28-15.29V123.08A15.28,15.28,0,0,0,277.31,107.8ZM393.47,338.39H356.4a15.28,15.28,0,0,0-15.29,15.28v37.07A15.29,15.29,0,0,0,356.4,406h37.07a15.29,15.29,0,0,0,15.28-15.29V353.67A15.28,15.28,0,0,0,393.47,338.39Zm0,0H356.4a15.28,15.28,0,0,0-15.29,15.28v37.07A15.29,15.29,0,0,0,356.4,406h37.07a15.29,15.29,0,0,0,15.28-15.29V353.67A15.28,15.28,0,0,0,393.47,338.39Zm-116.16,0H240.24A15.28,15.28,0,0,0,225,353.67v37.07A15.29,15.29,0,0,0,240.24,406h37.07a15.29,15.29,0,0,0,15.28-15.29V353.67A15.28,15.28,0,0,0,277.31,338.39Zm0-115.3H240.24A15.29,15.29,0,0,0,225,238.38v37.07a15.29,15.29,0,0,0,15.29,15.29h37.07a15.29,15.29,0,0,0,15.28-15.29V238.38A15.29,15.29,0,0,0,277.31,223.09Zm0-115.29H240.24A15.28,15.28,0,0,0,225,123.08v37.07a15.28,15.28,0,0,0,15.29,15.29h37.07a15.28,15.28,0,0,0,15.28-15.29V123.08A15.28,15.28,0,0,0,277.31,107.8ZM161.14,223.09H124.07a15.29,15.29,0,0,0-15.28,15.29v37.07a15.29,15.29,0,0,0,15.28,15.29h37.07a15.29,15.29,0,0,0,15.29-15.29V238.38A15.29,15.29,0,0,0,161.14,223.09Zm0-115.29H124.07a15.28,15.28,0,0,0-15.28,15.28v37.07a15.28,15.28,0,0,0,15.28,15.29h37.07a15.28,15.28,0,0,0,15.29-15.29V123.08A15.28,15.28,0,0,0,161.14,107.8Zm0,115.29H124.07a15.29,15.29,0,0,0-15.28,15.29v37.07a15.29,15.29,0,0,0,15.28,15.29h37.07a15.29,15.29,0,0,0,15.29-15.29V238.38A15.29,15.29,0,0,0,161.14,223.09Zm0-115.29H124.07a15.28,15.28,0,0,0-15.28,15.28v37.07a15.28,15.28,0,0,0,15.28,15.29h37.07a15.28,15.28,0,0,0,15.29-15.29V123.08A15.28,15.28,0,0,0,161.14,107.8ZM277.31,338.39H240.24A15.28,15.28,0,0,0,225,353.67v37.07A15.29,15.29,0,0,0,240.24,406h37.07a15.29,15.29,0,0,0,15.28-15.29V353.67A15.28,15.28,0,0,0,277.31,338.39Zm0-115.3H240.24A15.29,15.29,0,0,0,225,238.38v37.07a15.29,15.29,0,0,0,15.29,15.29h37.07a15.29,15.29,0,0,0,15.28-15.29V238.38A15.29,15.29,0,0,0,277.31,223.09Zm0-115.29H240.24A15.28,15.28,0,0,0,225,123.08v37.07a15.28,15.28,0,0,0,15.29,15.29h37.07a15.28,15.28,0,0,0,15.28-15.29V123.08A15.28,15.28,0,0,0,277.31,107.8Zm0,230.59H240.24A15.28,15.28,0,0,0,225,353.67v37.07A15.29,15.29,0,0,0,240.24,406h37.07a15.29,15.29,0,0,0,15.28-15.29V353.67A15.28,15.28,0,0,0,277.31,338.39Zm0-115.3H240.24A15.29,15.29,0,0,0,225,238.38v37.07a15.29,15.29,0,0,0,15.29,15.29h37.07a15.29,15.29,0,0,0,15.28-15.29V238.38A15.29,15.29,0,0,0,277.31,223.09Zm0-115.29H240.24A15.28,15.28,0,0,0,225,123.08v37.07a15.28,15.28,0,0,0,15.29,15.29h37.07a15.28,15.28,0,0,0,15.28-15.29V123.08A15.28,15.28,0,0,0,277.31,107.8ZM161.14,223.09H124.07a15.29,15.29,0,0,0-15.28,15.29v37.07a15.29,15.29,0,0,0,15.28,15.29h37.07a15.29,15.29,0,0,0,15.29-15.29V238.38A15.29,15.29,0,0,0,161.14,223.09Zm0-115.29H124.07a15.28,15.28,0,0,0-15.28,15.28v37.07a15.28,15.28,0,0,0,15.28,15.29h37.07a15.28,15.28,0,0,0,15.29-15.29V123.08A15.28,15.28,0,0,0,161.14,107.8Zm0,115.29H124.07a15.29,15.29,0,0,0-15.28,15.29v37.07a15.29,15.29,0,0,0,15.28,15.29h37.07a15.29,15.29,0,0,0,15.29-15.29V238.38A15.29,15.29,0,0,0,161.14,223.09Zm0-115.29H124.07a15.28,15.28,0,0,0-15.28,15.28v37.07a15.28,15.28,0,0,0,15.28,15.29h37.07a15.28,15.28,0,0,0,15.29-15.29V123.08A15.28,15.28,0,0,0,161.14,107.8Zm116.17,0H240.24A15.28,15.28,0,0,0,225,123.08v37.07a15.28,15.28,0,0,0,15.29,15.29h37.07a15.28,15.28,0,0,0,15.28-15.29V123.08A15.28,15.28,0,0,0,277.31,107.8Zm0,0H240.24A15.28,15.28,0,0,0,225,123.08v37.07a15.28,15.28,0,0,0,15.29,15.29h37.07a15.28,15.28,0,0,0,15.28-15.29V123.08A15.28,15.28,0,0,0,277.31,107.8ZM161.14,223.09H124.07a15.29,15.29,0,0,0-15.28,15.29v37.07a15.29,15.29,0,0,0,15.28,15.29h37.07a15.29,15.29,0,0,0,15.29-15.29V238.38A15.29,15.29,0,0,0,161.14,223.09Zm0-115.29H124.07a15.28,15.28,0,0,0-15.28,15.28v37.07a15.28,15.28,0,0,0,15.28,15.29h37.07a15.28,15.28,0,0,0,15.29-15.29V123.08A15.28,15.28,0,0,0,161.14,107.8Zm0,115.29H124.07a15.29,15.29,0,0,0-15.28,15.29v37.07a15.29,15.29,0,0,0,15.28,15.29h37.07a15.29,15.29,0,0,0,15.29-15.29V238.38A15.29,15.29,0,0,0,161.14,223.09Zm0,0H124.07a15.29,15.29,0,0,0-15.28,15.29v37.07a15.29,15.29,0,0,0,15.28,15.29h37.07a15.29,15.29,0,0,0,15.29-15.29V238.38A15.29,15.29,0,0,0,161.14,223.09Z"/>
  <g>
    <path class="cls-1" d="M176.43,123.08v37.07a15.28,15.28,0,0,1-15.29,15.29H124.07a15.28,15.28,0,0,1-15.28-15.29V123.08a15.28,15.28,0,0,1,15.28-15.28h37.07A15.28,15.28,0,0,1,176.43,123.08Z"/>
    <path class="cls-1" d="M292.59,123.08v37.07a15.28,15.28,0,0,1-15.28,15.29H240.24A15.28,15.28,0,0,1,225,160.15V123.08a15.28,15.28,0,0,1,15.29-15.28h37.07A15.28,15.28,0,0,1,292.59,123.08Z"/>
    <path class="cls-1" d="M408.75,123.08v37.07a15.28,15.28,0,0,1-15.28,15.29H356.4a15.28,15.28,0,0,1-15.29-15.29V123.08A15.28,15.28,0,0,1,356.4,107.8h37.07A15.28,15.28,0,0,1,408.75,123.08Z"/>
    <path class="cls-1" d="M176.43,238.38v37.07a15.29,15.29,0,0,1-15.29,15.29H124.07a15.29,15.29,0,0,1-15.28-15.29V238.38a15.29,15.29,0,0,1,15.28-15.29h37.07A15.29,15.29,0,0,1,176.43,238.38Z"/>
    <path class="cls-1" d="M292.59,238.38v37.07a15.29,15.29,0,0,1-15.28,15.29H240.24A15.29,15.29,0,0,1,225,275.45V238.38a15.29,15.29,0,0,1,15.29-15.29h37.07A15.29,15.29,0,0,1,292.59,238.38Z"/>
    <path class="cls-1" d="M408.75,238.38v37.07a15.29,15.29,0,0,1-15.28,15.29H356.4a15.29,15.29,0,0,1-15.29-15.29V238.38a15.29,15.29,0,0,1,15.29-15.29h37.07A15.29,15.29,0,0,1,408.75,238.38Z"/>
    <path class="cls-1" d="M176.43,353.67v37.07A15.29,15.29,0,0,1,161.14,406H124.07a15.29,15.29,0,0,1-15.28-15.29V353.67a15.28,15.28,0,0,1,15.28-15.28h37.07A15.28,15.28,0,0,1,176.43,353.67Z"/>
    <path class="cls-1" d="M292.59,353.67v37.07A15.29,15.29,0,0,1,277.31,406H240.24A15.29,15.29,0,0,1,225,390.74V353.67a15.28,15.28,0,0,1,15.29-15.28h37.07A15.28,15.28,0,0,1,292.59,353.67Z"/>
    <path class="cls-1" d="M408.75,353.67v37.07A15.29,15.29,0,0,1,393.47,406H356.4a15.29,15.29,0,0,1-15.29-15.29V353.67a15.28,15.28,0,0,1,15.29-15.28h37.07A15.28,15.28,0,0,1,408.75,353.67Z"/>
  </g>
</svg>
