<svg xmlns="http://www.w3.org/2000/svg" viewBox="0 0 512 512">
  <defs>
    <style>
      .cls-1 {
        fill: #9980ff;
      }
    </style>
  </defs>
  <g id="Mixer">
    <path class="cls-1" d="M156.49,114V342.23H127.15V114a14.67,14.67,0,1,1,29.34,0Z"/>
    <path class="cls-1" d="M127.15,371.56h29.34v26.22a14.67,14.67,0,1,1-29.34,0Z"/>
    <path class="cls-1" d="M270.8,114V234.22H241.46V114a14.67,14.67,0,1,1,29.34,0Z"/>
    <path class="cls-1" d="M241.46,263.56H270.8V397.78a14.67,14.67,0,0,1-29.34,0Z"/>
    <path class="cls-1" d="M385.1,114v174.2H355.77V114a14.67,14.67,0,1,1,29.33,0Z"/>
    <path class="cls-1" d="M355.77,317.48H385.1v80.3a14.67,14.67,0,1,1-29.33,0Z"/>
    <path class="cls-1" d="M165.23,333.23H118.41a23.67,23.67,0,0,0,0,47.33h46.82a23.67,23.67,0,0,0,0-47.33Zm0,38.33H118.41a14.67,14.67,0,0,1,0-29.33h46.82a14.67,14.67,0,0,1,0,29.33Z"/>
    <path class="cls-1" d="M279.4,225.22H232.59a23.67,23.67,0,0,0,0,47.34H279.4a23.67,23.67,0,1,0,0-47.34Zm0,38.34H232.59a14.67,14.67,0,0,1,0-29.34H279.4a14.67,14.67,0,0,1,0,29.34Z"/>
    <path class="cls-1" d="M393.85,279.15H347a23.67,23.67,0,1,0,0,47.33h46.82a23.67,23.67,0,0,0,0-47.33Zm0,38.33H347a14.67,14.67,0,1,1,0-29.33h46.82a14.67,14.67,0,0,1,0,29.33Z"/>
  </g>
</svg>
