<svg xmlns="http://www.w3.org/2000/svg" viewBox="0 0 512 512">
  <defs>
    <style>
      .cls-1 {
        fill: #9880fe;
      }
    </style>
  </defs>
  <g id="PC">
    <path class="cls-1" d="M456.25,125.53c0-14.55-12.95-26.24-26.33-26.2-56.43.15-112.86.06-169.29.06-56.09,0-112.17.16-168.26-.11-14-.07-27,11.43-27,26.6q-.27,92.49,0,185a27.47,27.47,0,0,0,28,27.82c35.57-.22,71.14,0,106.7-.15,3.79,0,5,.91,4.9,4.81-.3,8.67-.22,17.37,0,26,.07,3.15-.94,4.08-4.07,4.05-13-.15-26-.2-39,0-9.61.14-16.82,4.79-21.53,13-5.59,9.7-5.41,20-2.14,30.34,2.94,9.32,13.54,16.93,23.17,16.93q99.52,0,199,0a21.25,21.25,0,0,0,11.48-3.36c12.64-8,15.06-20.14,13-34.64-1.81-12.91-14.58-23.49-28.75-22.49-11.74.82-23.59.07-35.39.22-3.08,0-4.19-.79-4.11-4,.2-8.51.31-17,0-25.55-.17-4.27,1.11-5.39,5.38-5.36,35.57.17,71.14.1,106.7.09,15.54,0,27.56-11.71,27.57-27.08Q456.33,218.54,456.25,125.53ZM354.09,392.84c8.66,0,11,2.81,10.86,12.11-.09,6.72-3.14,9.32-11.06,9.32q-46.65,0-93.29,0H167.82c-7.34,0-11.13-3.22-11.2-9.44-.09-8.26,3.14-12,10.89-12Q260.79,392.77,354.09,392.84Zm68.27-81.72c-53.86-.16-107.72-.1-161.58-.1s-107.72-.06-161.58.1c-4.74,0-6.35-.85-6.33-6q.3-86.1,0-172.2c0-4.48.89-6,5.81-6q162.09.23,324.18,0c4.95,0,5.79,1.59,5.78,6q-.21,86.11,0,172.21C428.73,310.31,427.06,311.14,422.36,311.12Z"/>
  </g>
</svg>
