<svg xmlns="http://www.w3.org/2000/svg" viewBox="0 0 512 512">
  <defs>
    <style>
      .cls-1 {
        fill: #9980ff;
      }
    </style>
  </defs>
  <g id="Piano">
    <path class="cls-1" d="M373.72,99.28H138.28a39.05,39.05,0,0,0-39,39V373.72a39.05,39.05,0,0,0,39,39H373.72a39.05,39.05,0,0,0,39-39V138.28A39.05,39.05,0,0,0,373.72,99.28Zm12,274.44a12,12,0,0,1-12,12H138.28a12,12,0,0,1-12-12V138.28a12,12,0,0,1,12-12h49.57V260a6.28,6.28,0,0,0,6.26,6.26h11.06V385.72h12V266.24h11.07A6.28,6.28,0,0,0,234.5,260V126.28h43V260a6.28,6.28,0,0,0,6.26,6.26h11.07V385.72h12V266.24h11.06a6.28,6.28,0,0,0,6.26-6.26V126.28h49.57a12,12,0,0,1,12,12Z"/>
  </g>
</svg>
