<svg xmlns="http://www.w3.org/2000/svg" viewBox="0 0 512 512">
  <defs>
    <style>
      .cls-1 {
        fill: #9980ff;
      }
    </style>
  </defs>
  <g id="Ebene_5" data-name="Ebene 5">
    <g>
      <path class="cls-1" d="M256.11,349.79c-79.79,0-124.62-29-144.23-51.25-6,8.75-9.35,18.2-9.35,28.06,0,45,68.9,81.6,153.58,81.6s153.58-36.6,153.58-81.6c0-9.75-3.23-19.1-9.16-27.77C378.44,324.39,327.87,349.79,256.11,349.79Z"/>
      <path class="cls-1" d="M385.48,232.89a160.32,160.32,0,0,1-39.38,21.45c-1.38.54-2.78,1.06-4.21,1.57s-2.89,1-4.37,1.52c-22.67,7.62-50,12.48-81.41,12.48-33,0-60.06-5-81.8-12.36-1.46-.5-2.89-1-4.3-1.52s-2.81-1-4.17-1.59A155.84,155.84,0,0,1,127,232.71a109.61,109.61,0,0,1-15.08-14.05c-5.69,8.24-8.95,17.1-9.31,26.33,0,.57,0,1.15,0,1.73,0,12.85,5.62,25,15.63,35.85.65.71,1.33,1.42,2,2.12s1.33,1.32,2,2c26.35,24.85,76.5,41.67,133.9,41.67S363.66,311.51,390,286.66c.69-.65,1.37-1.31,2-2s1.38-1.41,2-2.12c9.95-10.77,15.57-22.86,15.63-35.63v-.22c0-9.75-3.23-19.1-9.16-27.77A99.57,99.57,0,0,1,385.48,232.89Z"/>
      <path class="cls-1" d="M256.11,85.24c-83.6,0-151.81,35.68-153.54,79.88,0,.57,0,1.14,0,1.72,0,12.85,5.62,25,15.64,35.85.65.71,1.33,1.42,2,2.13s1.32,1.31,2,2A111.55,111.55,0,0,0,143,222c16.78,9.72,37.93,17.26,61.76,21.76q4.3.83,8.71,1.5,5.46.84,11.08,1.46a285.82,285.82,0,0,0,31.52,1.73,285.82,285.82,0,0,0,31.52-1.73q5.63-.61,11.08-1.46,4.41-.67,8.71-1.5c23.83-4.5,45-12,61.75-21.75A112.12,112.12,0,0,0,390,206.78c.69-.65,1.36-1.3,2-2s1.38-1.42,2-2.13c10-10.76,15.57-22.85,15.64-35.62v-.23C409.69,121.85,340.79,85.24,256.11,85.24Zm22,80.71-.65,2.45a4.39,4.39,0,0,1-4.24,3.26H228.54a4.37,4.37,0,0,0-4,6.2,38.69,38.69,0,0,0,13.32,15.64,40.85,40.85,0,0,0,4.57,2.73c7.12,3.67,15.62,5.53,25.41,5.53a75,75,0,0,0,21.89-3.16c.56-.17,1.11-.34,1.65-.53a47.43,47.43,0,0,0,10.31-4.78,4.36,4.36,0,0,1,6.46,2.5l1.56,5.22,2.63,8.8a4.38,4.38,0,0,1-2.23,5.17,70.3,70.3,0,0,1-17.4,5.69,135.17,135.17,0,0,1-27.27,2.71c-21,0-38-5.09-50.7-14.94a59.28,59.28,0,0,1-8.57-8.13A55.32,55.32,0,0,1,194,175.16a4.39,4.39,0,0,0-1.71-2.65,4.29,4.29,0,0,0-2.58-.85h-8.24a4.4,4.4,0,0,1-4.32-5.12l1-6.17a4.37,4.37,0,0,1,4.32-3.65h6.34a4.37,4.37,0,0,0,4.36-3.87c.07-.64.14-1.27.23-1.91s.17-1.23.27-1.83a4.4,4.4,0,0,0-4.32-5.14h-3.22a4.38,4.38,0,0,1-4.32-5.12l.7-4.13a4.38,4.38,0,0,1,4.32-3.64h9.5a4.37,4.37,0,0,0,3.84-2.29,52.46,52.46,0,0,1,22.3-22c10.11-5.35,22.17-8,36.43-8a113.74,113.74,0,0,1,19.24,1.57,93.38,93.38,0,0,1,13.08,3.18,4.37,4.37,0,0,1,2.84,5.36l-1.19,4.18A4.37,4.37,0,0,1,287,116a60.55,60.55,0,0,0-11-3.48A72,72,0,0,0,261.29,111c-9.09,0-16.61,1.68-22.65,5.08-.3.17-.59.34-.88.53h0a33.33,33.33,0,0,0-8.54,7.29,4.39,4.39,0,0,0,3.39,7.17H282a4.38,4.38,0,0,1,4.22,5.56L285,140.76A4.39,4.39,0,0,1,280.8,144H224.48a4.39,4.39,0,0,0-4.37,3.91c-.09.84-.16,1.71-.21,2.59,0,.55-.06,1.11-.08,1.66a4.38,4.38,0,0,0,4.38,4.59h50.64a4.39,4.39,0,0,1,4.24,5.51l-.23.87Z"/>
    </g>
  </g>
</svg>
