<svg xmlns="http://www.w3.org/2000/svg" viewBox="0 0 512 512">
  <defs>
    <style>
      .cls-1 {
        fill: #9980ff;
      }
    </style>
  </defs>
  <g id="Synth">
    <g>
      <path class="cls-1" d="M381.77,298.34a125.74,125.74,0,1,1-24.28-74.29l-55.65,31.36a62.56,62.56,0,1,0,8,10.54l54.61-30.78.24-.15A125.2,125.2,0,0,1,381.77,298.34Z"/>
      <path class="cls-1" d="M256,146.81a5.45,5.45,0,0,1-5.46-5.46V88.92a5.46,5.46,0,1,1,10.92,0v52.43A5.45,5.45,0,0,1,256,146.81Z"/>
      <path class="cls-1" d="M177.51,167.84a5.45,5.45,0,0,1-4.73-2.73l-26.22-45.4a5.46,5.46,0,1,1,9.46-5.46l26.21,45.4a5.46,5.46,0,0,1-2,7.46A5.4,5.4,0,0,1,177.51,167.84Z"/>
      <path class="cls-1" d="M120,225.31a5.42,5.42,0,0,1-2.73-.74l-45.4-26.21a5.46,5.46,0,1,1,5.46-9.46l45.4,26.21a5.47,5.47,0,0,1-2.73,10.2Z"/>
      <path class="cls-1" d="M99,303.8H46.58a5.46,5.46,0,1,1,0-10.92H99a5.46,5.46,0,0,1,0,10.92Z"/>
      <path class="cls-1" d="M74.64,408.51a5.46,5.46,0,0,1-2.73-10.19l45.4-26.22a5.46,5.46,0,0,1,5.46,9.46l-45.4,26.22A5.51,5.51,0,0,1,74.64,408.51Z"/>
      <path class="cls-1" d="M437.36,408.51a5.51,5.51,0,0,1-2.73-.73l-45.4-26.22a5.46,5.46,0,1,1,5.46-9.46l45.4,26.22a5.46,5.46,0,0,1-2.73,10.19Z"/>
      <path class="cls-1" d="M465.42,303.8H413a5.46,5.46,0,1,1,0-10.92h52.43a5.46,5.46,0,0,1,0,10.92Z"/>
      <path class="cls-1" d="M392,225.31a5.47,5.47,0,0,1-2.73-10.2l45.4-26.21a5.46,5.46,0,0,1,5.46,9.46l-45.4,26.21A5.42,5.42,0,0,1,392,225.31Z"/>
      <path class="cls-1" d="M334.49,167.84a5.4,5.4,0,0,1-2.73-.73,5.46,5.46,0,0,1-2-7.46L356,114.25a5.46,5.46,0,0,1,9.46,5.46l-26.22,45.4A5.45,5.45,0,0,1,334.49,167.84Z"/>
    </g>
  </g>
</svg>
