<svg id="Ebene_1" data-name="Ebene 1" xmlns="http://www.w3.org/2000/svg" viewBox="0 0 512 512">
  <defs>
    <style>
      .cls-1 {
        fill: #9980ff;
      }
    </style>
  </defs>
  <g>
    <path class="cls-1" d="M454.41,161.59,417,96.74a11.08,11.08,0,0,0-19.74,1.13c-1.57,3.57-3.25,7-5,10.26-9.56,17.66-21.45,33-36.61,45-7.2,5.61-15,10.17-22.69,14.92-23.36,14.31-45.39,27.77-66.81,40.73l-3.66-6.35a6.3,6.3,0,0,0-8.58-2.3L247.23,204a6.3,6.3,0,0,0-2.3,8.58l3.84,6.65,0,0q-9.54,5.73-19,11.36a3.73,3.73,0,0,0-.16-.35l-3.83-6.65a6.3,6.3,0,0,0-8.58-2.3l-6.65,3.84a6.3,6.3,0,0,0-2.3,8.58l3.84,6.65a5.74,5.74,0,0,0,.36.5q-9.82,5.81-19.67,11.55a6.58,6.58,0,0,0-.32-.72l-3.84-6.65a6.31,6.31,0,0,0-8.58-2.3l-6.65,3.84a6.31,6.31,0,0,0-2.3,8.58l3.84,6.65a6.38,6.38,0,0,0,.49.67c-32.14,18.54-65.26,37.05-101.91,56.74l-4.9-8.49a5.68,5.68,0,0,0-7.74-2.07l-6.88,4A5.67,5.67,0,0,0,52,320.4l26.22,45.42a5.69,5.69,0,0,0,7.74,2.08l6.87-4a5.67,5.67,0,0,0,2.08-7.73L90,347.7c19.94-12.5,42.27-25.85,63-38.14a56.1,56.1,0,0,0,84.18,48.68l88.3-51a56.1,56.1,0,0,0,1.85-96.09c6.63-3.53,14-7.49,23.29-12.52,8-4.29,15.81-8.77,24.27-12.2a146.2,146.2,0,0,1,68.59-8.37A11.07,11.07,0,0,0,454.41,161.59ZM312.29,284.51l-88.29,51a29.87,29.87,0,0,1-37.27-45.69c30-17.42,60.43-34.74,90.52-51.51,6.38-3.57,11.86-6.6,16.84-9.32a29.86,29.86,0,0,1,18.2,55.54Z"/>
    <rect class="cls-1" x="156.2" y="231.11" width="31.81" height="11.09" rx="4.59" transform="translate(-95.27 117.76) rotate(-30)"/>
    <rect class="cls-1" x="193.35" y="209.66" width="31.81" height="11.09" rx="4.59" transform="translate(-79.57 133.46) rotate(-30)"/>
    <rect class="cls-1" x="230" y="188.5" width="31.81" height="11.09" rx="4.59" transform="translate(-64.08 148.95) rotate(-30)"/>
  </g>
</svg>
