<svg id="Ebene_1" data-name="Ebene 1" xmlns="http://www.w3.org/2000/svg" viewBox="0 0 512 512">
  <defs>
    <style>
      .cls-1 {
        fill: #eff0ff;
      }
    </style>
  </defs>
  <g id="mail">
    <polygon class="cls-1" points="256 242.01 367.95 172.04 367.95 200.03 256 269.99 144.05 200.03 144.05 172.04 256 242.01"/>
    <path class="cls-1" d="M256,46.22C140.14,46.22,46.22,140.15,46.22,256S140.14,465.78,256,465.78,465.78,371.86,465.78,256,371.86,46.22,256,46.22ZM395.94,340a28.07,28.07,0,0,1-28,28H144.05a28.07,28.07,0,0,1-28-28L116.2,172a28,28,0,0,1,27.85-28H368a28.07,28.07,0,0,1,28,28Z"/>
  </g>
</svg>
