<svg id="Ebene_1" data-name="Ebene 1" xmlns="http://www.w3.org/2000/svg" viewBox="0 0 512 512">
  <defs>
    <style>
      .cls-1 {
        fill: #eff0ff;
      }
    </style>
  </defs>
  <path class="cls-1" d="M256,48.77C141.55,48.77,48.77,141.55,48.77,256S141.55,463.23,256,463.23,463.23,370.45,463.23,256,370.45,48.77,256,48.77ZM386.18,234a122.07,122.07,0,0,1-71.41-23V315.31A94.94,94.94,0,1,1,233,221.75v52.41a42.23,42.23,0,0,0-12.73-2,43.15,43.15,0,1,0,43.07,44.77l.08-205.71h51.33a71.5,71.5,0,0,0,71.41,71.41Z"/>
</svg>
