<svg xmlns="http://www.w3.org/2000/svg" viewBox="0 0 1706.56 1706.56">
  <defs>
    <style>
      .cls-1 {
        fill: #eff0ff;
      }

      .cls-2 {
        fill: #9980ff;
      }
    </style>
  </defs>
  <g id="Purple_Icon" data-name="Purple Icon">
    <g>
      <path class="cls-1" d="M52.69,530.58a35.86,35.86,0,0,1-22.42-33.24V380.46c0-146.69,167-159.73,300-138.42,230.8,37,372.33,162.83,372.33,359.3v908.81c0,182.54-134.17,144.68-373.24-65.5l-15.64-13.76c-183.07-161-283.48-305.66-283.48-458V706.66a27.11,27.11,0,0,1,39.36-24.19L297.19,797.56a58.69,58.69,0,0,1,32.2,52.37v68.28c0,27.94-30.52,45.15-54.42,30.69l-46.34-28A15.6,15.6,0,0,0,205,934.2v67.19c0,79.4,45.37,131.46,116.59,186.7,77.82,60.36,135.35,79.18,135.35-13V605.2c0-92.17-57.53-132.72-135.35-152.64C250.32,434.32,205,444.94,205,524.33V539a35.86,35.86,0,0,1-49.3,33.25Z"/>
      <g>
        <path class="cls-1" d="M1668.11,530.58a35.86,35.86,0,0,0,22.42-33.24V380.46c0-146.69-167-159.73-300-138.42-230.8,37-372.34,162.83-372.34,359.3v908.81c0,182.54,134.18,144.68,373.24-65.5l15.65-13.76c183.07-161,283.47-305.66,283.47-458V706.66a27.11,27.11,0,0,0-39.35-24.19L1423.61,797.56a58.69,58.69,0,0,0-32.2,52.37v68.28c0,27.94,30.53,45.15,54.43,30.69l46.34-28a15.6,15.6,0,0,1,23.67,13.35v67.19c0,79.4-45.36,131.46-116.58,186.7-77.82,60.36-135.35,79.18-135.35-13V605.2c0-92.17,57.53-132.72,135.35-152.64,71.22-18.24,116.58-7.62,116.58,71.77V539a35.87,35.87,0,0,0,49.31,33.25Z"/>
        <path class="cls-2" d="M860.4,56C474.65,53.47,14.25,47.43,14.25,245.41c0,8.19,47.37-123.44,324.89-91.63,439.62,50.4,468.45,352.1,468.47,447.56v951.4c-5.17,75.63-45.93,96.75-45.93,96.75l98.71,1.76,98.72-1.76s-40.77-21.12-45.94-96.75l0-951.4c0-95.46,28.84-397.16,468.46-447.56,277.53-31.81,324.9,99.82,324.9,91.63C1706.56,47.43,1246.16,53.47,860.4,56Z"/>
      </g>
    </g>
  </g>
</svg>
