<svg xmlns="http://www.w3.org/2000/svg" viewBox="0 0 2325.33 412.44">
  <defs>
    <style>
      .cls-1 {
        isolation: isolate;
      }

      .cls-2 {
        mix-blend-mode: difference;
        opacity: 0.3;
      }

      .cls-3 {
        fill: #eff0ff;
      }
    </style>
  </defs>
  <g class="cls-1">
    <g id="Ebene_11" data-name="Ebene 11">
      <g id="layer1">
        <g id="g12977">
          <path id="path12975" class="cls-3" d="M378.91,208c0,45.31-33.06,79.09-78.68,79.09a71.77,71.77,0,0,1-46.86-16.73l-4.81,12.48H218.67V79.19h40.46v62.08a72.14,72.14,0,0,1,41.1-12.33c45.62,0,78.68,33.7,78.68,79.08m-82,40.78c23.53,0,40.78-17.48,40.78-40.78,0-23.53-17.25-41-40.78-41s-40.78,17.57-40.78,41c0,23.18,17.29,40.78,40.78,40.78"/>
        </g>
        <path id="path12979" class="cls-3" d="M541.16,219.35H427.86c3.52,20.45,17,31.7,36.58,31.7,14.08,0,25.61-6.65,31.77-17.37h42.55c-10.89,32.61-39.54,53.43-74.28,53.43-44.23,0-77.68-34.22-77.68-79.09,0-45.1,33.21-79.08,77.68-79.08,45.94,0,77.48,35.42,77.48,78.56a90.61,90.61,0,0,1-.8,11.85M428.94,191.69H501.5c-5.73-18.29-18.89-28.21-37.06-28.21-18,0-30.82,10.53-35.5,28.21"/>
        <g id="g12983">
          <path id="path12981" class="cls-3" d="M700,133.18,634.81,280.9c-18,40.54-33.74,56-67.32,56H550.8V300.43h14c19.49,0,24.57-5.2,33.78-27.81l.56-1.2L535.71,133.18h44.07l39.94,92.09L657,133.18"/>
        </g>
        <path id="path12985" class="cls-3" d="M847.52,219.35H734.18c3.52,20.45,17,31.7,36.58,31.7,14.09,0,25.61-6.65,31.78-17.37h42.54c-10.89,32.61-39.54,53.43-74.28,53.43-44.22,0-77.68-34.22-77.68-79.09,0-45.1,33.22-79.08,77.68-79.08,45.94,0,77.48,35.42,77.48,78.56a98.08,98.08,0,0,1-.76,11.85M735.26,191.69h72.56c-5.72-18.29-18.89-28.21-37.06-28.21-18,0-30.82,10.53-35.5,28.21"/>
        <path id="path12987" class="cls-3" d="M955.58,132.34v38.18H938c-22.81,0-31.86,10.09-31.86,34.58v77.76H865.69V133.14h26l7.17,18.37c10.68-13.24,24.21-19.17,43.42-19.17"/>
        <g id="g12991">
          <path id="path12989" class="cls-3" d="M1114.26,79.19V282.86h-29.89l-4.77-12.44a71.63,71.63,0,0,1-46.9,16.93c-45.43,0-78.68-34-78.68-79.33s33.25-79.08,78.68-79.08a72.2,72.2,0,0,1,41.1,12.41V79.19ZM1076.8,208c0-23.45-17.29-41-40.78-41s-40.78,17.49-40.78,41,17.25,41,40.78,41,40.78-17.6,40.78-41"/>
        </g>
        <g id="g12995">
          <path id="path12993" class="cls-3" d="M1288.31,133.18,1223,280.9c-17.93,40.54-33.7,56-67.32,56H1139V300.43h14c19.49,0,24.57-5.2,33.78-27.81l.56-1.2L1124,133.18h44.06L1208,225.27l37.26-92.09"/>
        </g>
        <path id="path12997" class="cls-3" d="M1438,192.13v90.73h-40.5V198.7c0-22.65-8.6-33.54-26.09-33.54-20.85,0-33.62,14.93-33.62,39v78.68h-40.46V133.18h27.77l7.89,18.49c11.32-13.48,29.21-22,49.58-22,34.14,0,55.43,24.61,55.43,62.52"/>
        <path id="path12999" class="cls-3" d="M1616.09,132.94V282.66h-31.74l-3.48-13.4a72.82,72.82,0,0,1-48.51,17.85c-45.06,0-78.56-34-78.56-79.33,0-45.14,33.5-78.84,78.56-78.84,19.21,0,36.22,6.76,49.19,18.29l4.32-14.29Zm-39.66,74.84c0-23.49-17.25-41-40.79-41s-40.78,17.57-40.78,41,17.29,41,40.78,41,40.79-17.49,40.79-41"/>
        <path id="path13001" class="cls-3" d="M1866.62,189v93.89h-40.5v-87.2c0-20-7.81-30.5-22.49-30.5-18.09,0-28.78,13.29-28.78,36.74v81h-39.46v-87.2c0-20-7.64-30.5-22.13-30.5-18.29,0-29.22,13.29-29.22,36.74v81h-40.46V133.18h28.26l7.6,18.53c10.61-13.4,27-22.09,44.66-22.09,19,0,34.74,8.89,43.43,23.94a56.66,56.66,0,0,1,46.34-23.94c31,0,52.75,24.3,52.75,59.35"/>
        <g id="g13005">
          <path id="path13003" class="cls-3" d="M1892.31,113.21h40.3V75.59h-40.3Zm-.08,169.65h40.46V133.18h-40.46"/>
        </g>
        <g id="g13009">
          <path id="path13007" class="cls-3" d="M2029.79,287.11c-45,0-79.49-34.7-79.49-79.57s34.26-78.6,79.73-78.6c38.78,0,68.87,24.57,76.16,61.39H2066c-6.57-14.68-20.06-23.33-36.18-23.33-21.94,0-38.46,17.61-38.46,40.78s16.8,41.26,38.46,41.26c16.36,0,29.29-9.08,36.14-25.09h40.74c-7.05,37.62-37.7,63.16-76.88,63.16"/>
        </g>
      </g>
    </g>
  </g>
</svg>
