<svg xmlns="http://www.w3.org/2000/svg" viewBox="0 0 512 512">
  <defs>
    <style>
      .cls-1 {
        fill: #9980ff;
      }
    </style>
  </defs>
  <g id="Ebene_11" data-name="Ebene 11">
    <g>
      <g>
        <path class="cls-1" d="M373.63,243.57a44.44,44.44,0,1,0-44.44-44.44A44.43,44.43,0,0,0,373.63,243.57Z"/>
        <path class="cls-1" d="M462.52,359.81h0a6.14,6.14,0,0,1-6.14,6.14H290.89a6.14,6.14,0,0,1-6.14-6.14h0c0-11.23,2.37-55.84,7-66.09l.06-.15c28.14-62.77,36-28.28,81.86-27.78,45.81-.5,53.71-35,81.84,27.78l.07.15C460.14,304,462.52,348.57,462.52,359.81Z"/>
      </g>
      <g>
        <path class="cls-1" d="M138.37,243.57a44.44,44.44,0,1,0-44.45-44.44A44.43,44.43,0,0,0,138.37,243.57Z"/>
        <path class="cls-1" d="M227.25,359.81h0a6.14,6.14,0,0,1-6.14,6.14H55.62a6.14,6.14,0,0,1-6.14-6.14h0c0-11.23,2.38-55.84,7-66.09l.07-.15c28.14-62.77,36-28.28,81.85-27.78,45.81-.5,53.71-35,81.85,27.78l.06.15C224.88,304,227.25,348.57,227.25,359.81Z"/>
      </g>
      <g>
        <path class="cls-1" d="M256,239.25a58.82,58.82,0,1,0-58.82-58.81A58.8,58.8,0,0,0,256,239.25Z"/>
        <path class="cls-1" d="M373.63,382.25h0a8.13,8.13,0,0,1-8.13,8.13h-219a8.13,8.13,0,0,1-8.13-8.13h0c0-14.87,3.14-63.06,9.22-76.63l.09-.2C184.92,222.35,195.37,268,256,268.66c60.63-.67,71.09-46.31,108.32,36.76l.09.2C370.49,319.19,373.63,367.38,373.63,382.25Z"/>
      </g>
    </g>
  </g>
</svg>
