<svg xmlns="http://www.w3.org/2000/svg" viewBox="0 0 2325.33 616.61">
  <defs>
    <style>
      .cls-1 {
        isolation: isolate;
      }

      .cls-2 {
        mix-blend-mode: difference;
        opacity: 0.3;
      }

      .cls-3 {
        fill: #eff0ff;
      }
    </style>
  </defs>
  <g class="cls-1">
    <g id="Ebene_11" data-name="Ebene 11">
      <g>
        <polygon class="cls-3" points="824.24 197.59 824.24 274.11 761.9 274.11 761.9 197.59 693.75 197.59 693.75 419.02 761.9 419.02 761.9 330.63 824.24 330.63 824.24 419.02 892.39 419.02 892.39 197.59 824.24 197.59"/>
        <g>
          <path class="cls-3" d="M1990.71,294.12h-43.26V250.39h43.26a21.87,21.87,0,1,1,0,43.73m90,86.06c-.47-23.26-6.28-54-32.56-64.2,56-25.12,41.4-118.39-35.82-118.39H1879.53V419h67.69V341.57l41.87-.24c7,0,21.63,4.19,23.72,32.1s7.21,45.36,7.21,45.36h68.85c.47.23-7.68-14.65-8.14-38.61"/>
          <polygon class="cls-3" points="1553.66 419.02 1611.11 419.02 1618.09 419.02 1618.09 197.59 1553.66 197.59 1553.66 315.28 1488.07 197.59 1483.42 197.59 1428.29 197.59 1419.22 197.59 1419.22 419.02 1483.42 419.02 1483.42 297.14 1551.1 419.02 1553.66 419.02"/>
          <path class="cls-3" d="M1034.74,367.85c-26.52,0-43.73-26.75-43.73-59.54s16.75-59.55,43.73-59.55,43.73,26.75,43.73,59.55c-.24,33-17.22,59.54-43.73,59.54m0-175.84c-68.85,0-111.65,52.1-111.65,116.3S966.82,424.6,1034.74,424.6s111.64-52.1,111.64-116.29-43-116.3-111.64-116.3"/>
          <polygon class="cls-3" points="1658.33 197.59 1715.78 197.59 1726.71 197.59 1841.15 197.59 1841.15 255.27 1726.71 255.27 1726.71 281.56 1829.52 281.56 1829.52 334.82 1726.71 334.82 1726.71 361.11 1841.15 361.11 1841.15 419.02 1726.71 419.02 1658.33 419.02 1658.33 197.59"/>
          <polygon class="cls-3" points="1310.37 197.59 1378.52 197.59 1378.52 419.02 1310.37 419.02 1310.37 330.63 1248.03 330.63 1248.03 419.02 1179.88 419.02 1179.88 197.59 1248.03 197.59 1248.03 274.11 1310.37 274.11 1310.37 197.59"/>
          <path class="cls-3" d="M329.22,352.31c-5.84,3.11-6.23,10.9-2.33,17.91s10.9,10.9,16.74,7.4c5.84-3.12,6.23-10.91,2.34-17.91-4.29-6.62-10.91-10.52-16.75-7.4"/>
          <path class="cls-3" d="M536,237.82l-9.34,5.07,5.45,9.34,9.34-5.06a5.22,5.22,0,0,0,1.95-7.4c-1.56-2.33-5.06-3.5-7.4-2"/>
          <path class="cls-3" d="M618.93,308.31C618.93,193,525.48,99.2,409.83,99.2A209.06,209.06,0,0,0,321,497.55c13.24-34.65,30-75.15,43.62-101.63l87.22-48.29c.39,7.4,1.95,13.24.78,20.64,21,40.89,37.77,82.94,53,125.39A207.52,207.52,0,0,0,618.93,308.31m-292-115.65L337,187.2a35.7,35.7,0,0,1-2.34-12.85,38.4,38.4,0,0,1,38.55-38.55,39,39,0,0,1,30,14.41l10.12-5.45a3.71,3.71,0,0,1,4.67,1.17l2.73,5.06a3.71,3.71,0,0,1-1.17,4.67l-10.12,5.45A35.77,35.77,0,0,1,411.77,174a38.39,38.39,0,0,1-38.55,38.55,39.06,39.06,0,0,1-30-14.4l-10.12,5.45a3.72,3.72,0,0,1-4.68-1.17l-2.72-5.06c-.78-2-.39-3.9,1.17-4.67m-55.69,102c9.74-37.77,39.33-58.8,78.27-68.54s70.09-2.72,108.64-16,47.12-24.92,50.23-27.65,9.35-4.67,7.4,4.67-13.63,38.55-48.67,55.3c-9,4.28-19.08,7-30,8.95l-6.23,12.46-82.94,46.34-13.24-42.83a87.83,87.83,0,0,0-10.12,6.23c-24.53,17.13-29.21,44-23,62.3l-30,16.75c-3.11-9.74-7.4-30.77-.39-58m33.1,119.93-10.51-19.08-13.63,7.4L290.67,422l-14.79,8.18-26.48-47.9,14.79-8.18,9.35,16.36,13.63-7.4-9.35-16.74,14.8-8.18L319.1,406Zm45.95-24.14c-14.8,8.18-30.37,2.33-38.16-11.68s-4.67-30.38,10.12-38.55,30.38-2.34,38.16,11.68,4.68,30.37-10.12,38.55m58.8-34.27-10.52-19.08-13.62,7.4,10.51,19.08-14.8,8.18-26.48-47.9,14.8-8.18,9.35,16.75,13.62-7.4-9.34-16.36,14.8-8.17,26.48,47.89Zm65-36.21-12.46,7-.39.39L432,309.08l14.8,26.48-14,7.79-26.48-47.89,1.95-1.17,12.07-6.62,1.17-.39,28.42,17.52-14-25.31,14-7.79,26.48,47.9ZM499,306l-14.8,8.18-26.48-47.9,12.46-7,2.34-1.17,24.53-13.63,7,12.47-24.53,13.62,3.11,5.85,22.2-12.47,6.23,11.3-22.2,12.46,3.12,5.84,24.53-13.63,7,12.46Zm47.5-48.29-9,5.07,9.34,16.74-14.79,8.18-26.48-47.9,7.79-4.28,7-3.9,14-7.78c16.75-9.35,31.16,8.95,21.81,21.41,7-.78,11.68,5.07,14.8,10.13a25.35,25.35,0,0,0,6.62,7.4l-14.8,8.17a63.1,63.1,0,0,1-7-8.95c-4.28-5.84-7.79-5.06-9.35-4.29"/>
          <path class="cls-3" d="M360.37,511.57a206.55,206.55,0,0,0,49.07,5.84,202.61,202.61,0,0,0,53.34-7,685.38,685.38,0,0,0-49.45-97c-22.19,29.6-41.27,65-53,98.13"/>
        </g>
      </g>
    </g>
  </g>
</svg>
