<svg xmlns="http://www.w3.org/2000/svg" viewBox="0 0 2470.96 757.28">
  <defs>
    <style>
      .cls-1 {
        fill: #eff0ff;
      }

      .cls-2 {
        fill: #9980ff;
      }
    </style>
  </defs>
  <g id="Ebene_2" data-name="Ebene 2">
    <g id="PurpleLogo">
      <g id="Icon">
        <g id="L-G">
          <g id="L-G-2" data-name="L-G">
            <path class="cls-1" d="M18.24,225.52A17,17,0,0,1,7.6,209.74V154.28C7.6,84.68,86.86,78.49,150,88.61c109.52,17.55,176.68,77.26,176.68,170.48V690.33c0,86.61-63.67,68.65-177.1-31.09l-7.43-6.52C55.25,576.34,7.6,507.68,7.6,435.4V309.07a12.87,12.87,0,0,1,18.68-11.48l108,54.61a27.85,27.85,0,0,1,15.28,24.85v32.4A17,17,0,0,1,123.71,424l-22-13.31A7.4,7.4,0,0,0,90.49,417v31.88c0,37.67,21.52,62.38,55.32,88.59,36.92,28.64,64.22,37.57,64.22-6.17V260.92c0-43.73-27.3-63-64.22-72.43-33.8-8.65-55.32-3.61-55.32,34.06v6.94a17,17,0,0,1-23.4,15.78Z"/>
          </g>
        </g>
        <g id="TorPurple">
          <g id="TorPurple-2" data-name="TorPurple">
            <path class="cls-2" d="M401.5.34C218.46-.87,0-3.74,0,90.2c0,3.89,22.48-58.57,154.16-43.47C362.76,70.64,376.44,213.8,376.45,259.09V710.54c-2.46,35.88-21.8,45.9-21.8,45.9l46.84.84,46.84-.84s-19.34-10-21.79-45.9V259.09c0-45.29,13.69-188.45,222.29-212.36C780.53,31.63,803,94.09,803,90.2,803-3.74,584.54-.87,401.5.34Z"/>
          </g>
        </g>
        <g id="R-G">
          <g id="R-G-2" data-name="R-G">
            <path class="cls-1" d="M784.76,225.52a17,17,0,0,0,10.64-15.78V154.28c0-69.6-79.26-75.79-142.36-65.67-109.52,17.55-176.68,77.26-176.68,170.48V690.33c0,86.61,63.67,68.65,177.11-31.09l7.42-6.52c86.87-76.38,134.51-145,134.51-217.32V309.07a12.86,12.86,0,0,0-18.67-11.48l-108,54.61a27.83,27.83,0,0,0-15.28,24.85v32.4A17,17,0,0,0,679.29,424l22-13.31A7.4,7.4,0,0,1,712.51,417v31.88c0,37.67-21.52,62.38-55.32,88.59C620.27,566.15,593,575.08,593,531.34V260.92c0-43.73,27.3-63,64.22-72.43,33.8-8.65,55.32-3.61,55.32,34.06v6.94a17,17,0,0,0,23.4,15.78Z"/>
          </g>
        </g>
      </g>
      <g id="Slogan">
        <path class="cls-2" d="M2471,611.47c0-13.18,0-37-37.55-37H963.22C845.91,574.45,853.47,560,799.36,623c-8.44,9.83-2.49,26.68,9.43,26.68H2433.41C2471,649.66,2471,624.86,2471,611.47Z"/>
      </g>
      <g id="GiggateName">
        <g>
          <path class="cls-2" d="M1087.42,303.31V411.84c0,65.12-42.2,89.24-106.12,89.24h-4.82c-63.92,0-106.12-23.51-106.12-89.24V158.6c0-62.71,42.2-89.24,106.12-89.24h4.82c63.92,0,106.12,26.53,106.12,89.24v36.17c0,15.68-8.44,24.12-24.11,24.12H1041.6c-15.68,0-24.12-8.44-24.12-24.12V169.45c0-30.15-15.68-38.59-38.59-38.59s-38.59,8.44-38.59,38.59V401c0,30.15,15.68,38.59,38.59,38.59s38.59-8.44,38.59-38.59V338.28H1000.6c-15.68,0-24.12-8.44-24.12-24.12V303.31c0-15.68,8.44-24.12,24.12-24.12h62.71C1079,279.19,1087.42,287.63,1087.42,303.31Z"/>
          <path class="cls-2" d="M1192.34,496.26h-21.71c-15.68,0-24.12-8.44-24.12-24.12V98.3c0-15.68,8.44-24.12,24.12-24.12h21.71c15.67,0,24.11,8.44,24.11,24.12V472.14C1216.45,487.82,1208,496.26,1192.34,496.26Z"/>
          <path class="cls-2" d="M1493.82,303.31V411.84c0,65.12-42.21,89.24-106.13,89.24h-4.82c-63.91,0-106.12-23.51-106.12-89.24V158.6c0-62.71,42.21-89.24,106.12-89.24h4.82c63.92,0,106.13,26.53,106.13,89.24v36.17c0,15.68-8.44,24.12-24.12,24.12H1448c-15.68,0-24.12-8.44-24.12-24.12V169.45c0-30.15-15.67-38.59-38.59-38.59s-38.59,8.44-38.59,38.59V401c0,30.15,15.68,38.59,38.59,38.59s38.59-8.44,38.59-38.59V338.28H1407c-15.68,0-24.12-8.44-24.12-24.12V303.31c0-15.68,8.44-24.12,24.12-24.12h62.71C1485.38,279.19,1493.82,287.63,1493.82,303.31Z"/>
          <path class="cls-1" d="M1770,303.31V411.84c0,65.12-42.21,89.24-106.12,89.24H1659c-63.91,0-106.12-23.51-106.12-89.24V158.6c0-62.71,42.21-89.24,106.12-89.24h4.83c63.91,0,106.12,26.53,106.12,89.24v36.17c0,15.68-8.44,24.12-24.12,24.12h-21.71c-15.67,0-24.11-8.44-24.11-24.12V169.45c0-30.15-15.68-38.59-38.59-38.59s-38.59,8.44-38.59,38.59V401c0,30.15,15.67,38.59,38.59,38.59S1700,431.14,1700,401V338.28h-16.89c-15.67,0-24.12-8.44-24.12-24.12V303.31c0-15.68,8.45-24.12,24.12-24.12h62.71C1761.53,279.19,1770,287.63,1770,303.31Z"/>
          <path class="cls-1" d="M2020.2,496.26h-22.31c-14.47,0-23.52-7.24-25.93-22.31l-11.46-71.76h-77.18L1871.87,474c-2.41,15.07-11.46,22.31-25.93,22.31h-18.69c-16.28,0-24.72-9.05-21.71-25.93l69.34-374.44c2.41-14.47,12.06-21.71,26.53-21.71h43.42c14.47,0,24.12,7.24,26.53,21.71l70.54,374.44C2044.92,487.21,2036.48,496.26,2020.2,496.26Zm-68.74-151.95-29.55-187.52-29.54,187.52Z"/>
          <path class="cls-1" d="M2242.69,98.3v13.26c0,15.68-8.44,24.12-24.12,24.12h-46.42V472.14c0,15.68-8.45,24.12-24.12,24.12h-21.71c-15.68,0-24.12-8.44-24.12-24.12V135.68h-46.43c-15.67,0-24.12-8.44-24.12-24.12V98.3c0-15.68,8.45-24.12,24.12-24.12h162.8C2234.25,74.18,2242.69,82.62,2242.69,98.3Z"/>
          <path class="cls-1" d="M2445.29,496.26H2306.6c-15.67,0-24.11-8.44-24.11-24.12V98.3c0-15.68,8.44-24.12,24.11-24.12h136.88c15.67,0,24.12,8.44,24.12,24.12v13.26c0,15.68-8.45,24.12-24.12,24.12h-91.05V251.45h72.36c15.67,0,24.11,8.44,24.11,24.12v13.27c0,15.67-8.44,24.12-24.11,24.12h-72.36V434.75h92.86c15.67,0,24.11,8.45,24.11,24.12v13.27C2469.4,487.82,2461,496.26,2445.29,496.26Z"/>
        </g>
      </g>
    </g>
  </g>
</svg>
