<svg xmlns="http://www.w3.org/2000/svg" viewBox="0 0 512 512">
  <defs>
    <style>
      .cls-1 {
        fill: #9980ff;
      }
    </style>
  </defs>
  <g id="Ebene_13" data-name="Ebene 13">
    <path class="cls-1" d="M401.45,256c0-1,0-1.93,0-2.89A29.47,29.47,0,0,1,416,226.92l1.32-.76a29.25,29.25,0,0,0,10.71-40l-25.59-44.32a29.25,29.25,0,0,0-40-10.71l-1.31.76a29,29,0,0,1-29.58-.19c-1.78-1.09-3.6-2.14-5.43-3.15a29.45,29.45,0,0,1-15.35-25.74v-1.51a29.25,29.25,0,0,0-29.26-29.25H230.41a29.24,29.24,0,0,0-29.25,29.25v1.51a29.45,29.45,0,0,1-15.35,25.74q-2.76,1.51-5.44,3.15a29,29,0,0,1-29.57.19l-1.32-.76a29.25,29.25,0,0,0-40,10.71L83.93,186.2a29.25,29.25,0,0,0,10.71,40l1.33.77a29.46,29.46,0,0,1,14.61,26.19c0,1,0,1.92,0,2.89s0,1.92,0,2.88A29.43,29.43,0,0,1,96,285.06l-1.34.78a29.25,29.25,0,0,0-10.71,40l25.59,44.32a29.25,29.25,0,0,0,40,10.71l1.32-.76a29,29,0,0,1,29.57.19q2.69,1.64,5.44,3.15a29.45,29.45,0,0,1,15.35,25.74v1.51a29.25,29.25,0,0,0,29.25,29.26h51.18a29.26,29.26,0,0,0,29.26-29.26v-1.51a29.45,29.45,0,0,1,15.35-25.74c1.83-1,3.65-2.06,5.43-3.15a29,29,0,0,1,29.58-.19l1.31.76a29.25,29.25,0,0,0,40-10.71l25.59-44.32a29.25,29.25,0,0,0-10.71-40l-1.29-.74a29.08,29.08,0,0,1-14.66-25.73C401.43,258.25,401.45,257.13,401.45,256Zm-143.2,68.07a68.12,68.12,0,1,1,65.82-65.87A68.12,68.12,0,0,1,258.25,324.08Z"/>
  </g>
</svg>
